<?xml version="1.0" encoding="utf-8"?>
<!-- Generator: Adobe Illustrator 24.0.1, SVG Export Plug-In . SVG Version: 6.00 Build 0)  -->
<svg version="1.1" id="Layer_1" xmlns="http://www.w3.org/2000/svg" xmlns:xlink="http://www.w3.org/1999/xlink" x="0px" y="0px"
	 width="16px" height="16px" viewBox="0 0 16 16" enable-background="new 0 0 16 16" xml:space="preserve">
<path id="Icon-Fill" fill-rule="evenodd" clip-rule="evenodd" fill="#181C56" d="M10.6754723,1.0060283
	C9.6678658,1.0621066,8.7402248,1.5068244,8.0290232,2.2307324L8,2.2602587L7.9709768,2.2307324
	C7.2089748,1.4551166,6.1985097,1,5.1074381,1C2.8468931,1,1,2.9265006,1,5.284483
	c0,0.9923234,0.385838,2.0899663,1.0876844,3.2879448c0.5709918,0.9746246,1.3409443,1.9968023,2.2613995,3.0442171
	c0.7102308,0.8081942,1.4694142,1.5857019,2.2285333,2.3055563l0.3837819,0.3588238l0.6356316,0.5689297
	c0.2344146,0.2000608,0.5715246,0.2000608,0.8059387,0l0.2846079-0.2501945l0.3510237-0.3187351
	c0.1227245-0.1130705,0.2509089-0.2328234,0.3837814-0.3588238c0.75912-0.7198544,1.5183029-1.4973621,2.2285337-2.3055563
	c0.920455-1.0474148,1.6904078-2.0695925,2.2613993-3.0442171C14.6141624,7.3744493,15,6.2768064,15,5.284483
	C15,2.9265006,13.1531067,1,10.8925619,1L10.6754723,1.0060283z M10.8925619,2.3275862
	c1.5576372,0,2.8347111,1.3321202,2.8347111,2.9568968c0,0.7048745-0.3101854,1.5872965-0.9009523,2.595675
	c-0.5227585,0.8922944-1.2442827,1.8501801-2.1136007,2.8394046c-0.6818142,0.7758579-1.4141083,1.5258274-2.1464663,2.2203045
	l-0.3697252,0.3456907L8,13.464138l-0.1965289-0.1785803c-0.1180868-0.1088018-0.2415891-0.2241821-0.3697248-0.3456907
	c-0.732358-0.6944771-1.4646521-1.4444466-2.1464663-2.2203045c-0.869318-0.9892244-1.5908427-1.9471102-2.1136007-2.8394046
	C2.582912,6.8717794,2.2727273,5.9893575,2.2727273,5.284483c0-1.6247766,1.2770739-2.9568968,2.8347108-2.9568968
	c0.950294,0,1.8168902,0.5051484,2.3681717,1.3415751c0.2528582,0.383647,0.7959223,0.383647,1.0487804,0
	C9.0756721,2.8327346,9.9422684,2.3275862,10.8925619,2.3275862z"/>
</svg>
