<?xml version="1.0" encoding="utf-8"?>
<!-- Generator: Adobe Illustrator 24.0.1, SVG Export Plug-In . SVG Version: 6.00 Build 0)  -->
<svg version="1.1" id="Layer_1" xmlns="http://www.w3.org/2000/svg" xmlns:xlink="http://www.w3.org/1999/xlink" x="0px" y="0px"
	 width="16px" height="16px" viewBox="0 0 16 16" enable-background="new 0 0 16 16" xml:space="preserve">
<path id="Icon-Fill" fill-rule="evenodd" clip-rule="evenodd" fill="#181C56" d="M8,1
	c1.3207655,0,2.5243196,0.7640793,3.116477,1.9457123l0.0803814,0.1716077l0.2545805,0.5832214L10.284996,4.209703
	l-0.2545805-0.5832214C9.6728191,2.8072622,8.8728352,2.2727273,8,2.2727273c-1.1873884,0-2.1266999,0.908031-2.199945,2.1051037
	L5.7954545,4.5289254L5.7951822,5.6279998L12.545455,5.628099c0.3195038,0,0.584012,0.2354627,0.6294632,0.5423269
	l0.0068998,0.0940371v8.0991726C13.181818,14.7150908,12.8969088,15,12.545455,15l0,0h-9.090909
	c-0.351454,0-0.6363637-0.2849092-0.6363637-0.636364l0,0V6.2644629c0-0.3514543,0.2849097-0.636364,0.6363637-0.636364l0,0
	L4.522182,5.6279998l0.0005455-1.0990744C4.5227275,2.560178,6.0550451,1,8,1z M11.909091,6.9000001H4.0909095v6.8272729h7.8181815
	V6.9000001z M7.9981823,8.3000002c0.7754383,0,1.3999996,0.6293964,1.3999996,1.4017944
	c0,0.5431576-0.3088465,1.0156002-0.7618227,1.2481899l0.0000048,1.5062141H7.3636365l0.0005059-1.5040989
	c-0.4552317-0.2318316-0.7659602-0.7054958-0.7659602-1.2503052C6.5981822,8.9293966,7.222743,8.3000002,7.9981823,8.3000002z"/>
</svg>
