<?xml version="1.0" encoding="UTF-8"?>
<svg width="973px" height="597px" viewBox="0 0 973 597" version="1.1" xmlns="http://www.w3.org/2000/svg" xmlns:xlink="http://www.w3.org/1999/xlink">
    <title>Group 8</title>
    <g id="Page-purple" stroke="none" stroke-width="1" fill="none" fill-rule="evenodd">
        <g id="Desktop-HD" transform="translate(-264.000000, -40.000000)">
            <g id="Group-8" transform="translate(264.000000, 40.715634)">
                <g id="Group-7" transform="translate(0.000000, 112.284366)">
                    <path d="M973,0 L279,0 L0.139819981,483 L694.13982,483 L973,0 Z M964,6 L692.068023,477 L13.0680232,477 L285,6 L964,6 Z" id="Rectangle" fill="#FFFFFF" fill-rule="nonzero"></path>
                    <polygon id="Rectangle" fill="#D8D8D8" points="285 6 964 6 692.068023 477 13.0680232 477"></polygon>
                    <g id="Group-6" transform="translate(120.000000, 2.500000)" opacity="0.510405041">
                        <g id="Group-5">
                            <polygon id="Rectangle-Copy-38" fill="#C1DA6E" points="641 106.5 788 106.5 723.91412 217.5 576.91412 217.5"></polygon>
                            <polygon id="Rectangle-Copy-39" fill="#C1DA6E" points="163 238.5 275 238.5 210.91412 349.5 98.9141201 349.5"></polygon>
                            <polygon id="Rectangle-Copy-40" fill="#FFFFFF" points="275 0.5 303 0.5 28.1812719 476.5 0.181271866 476.5"></polygon>
                            <polygon id="Rectangle-Copy-41" fill="#FFFFFF" points="415.5 87 405.685045 104 243.685045 104 253.5 87"></polygon>
                            <polygon id="Rectangle-Copy-42" fill="#FFFFFF" points="213.5 348 203.685045 365 91.6850454 365 101.5 348"></polygon>
                            <polygon id="Rectangle-Copy-43" fill="#FFFFFF" points="672 0.5 700 0.5 559.126534 244.5 531.126534 244.5"></polygon>
                            <polygon id="Rectangle-Copy-44" fill="#FFFFFF" points="722 217.5 705.834192 245.5 133.834192 245.5 150 217.5"></polygon>
                            <path d="M150.547053,474.5 C202.178376,376.433842 262.489267,318.431298 331.479726,300.492366 C444.194204,273.583969 483.875277,326.248159 531.126534,330.781265 C578.377791,335.314371 628.489669,335.707213 649.087031,335.707213" id="Path-2-Copy-2" stroke="#979797" stroke-width="3" stroke-dasharray="5"></path>
                            <path d="M210.796089,474.5 L569.593612,474.5 C585.956959,450.773617 596.850605,430.828699 602.274553,414.665245 C613.866585,380.120796 600.475207,362.848572 562.10042,362.848572 C543.881939,362.848572 510.559955,371.58586 443.964199,371.852222 C388.675367,372.07336 363.599663,325.06865 338.271716,336.436406 C320.281459,345.165218 312.705533,359.571425 306.071925,374.97767 L305.151468,377.133398 L302.4063,383.650228 L301.477584,385.82964 C294.146024,402.900927 285.308575,419.867416 262.596354,430.621252 C221.572913,460.501169 210.796089,450.706304 210.796089,474.5 Z" id="Path-3-Copy-2" fill="#79C1EF"></path>
                        </g>
                    </g>
                </g>
                <g id="Group-4" transform="translate(83.000000, 0.000000)">
                    <path d="M370.44965,196.284366 L426.55035,196.284366 C433.4542,196.284366 439.153913,201.680858 439.530949,208.574405 L443.250146,276.574405 C443.642247,283.743392 438.148496,289.872864 430.979509,290.264966 C430.743076,290.277897 430.506334,290.284366 430.269547,290.284366 L366.730453,290.284366 C359.550751,290.284366 353.730453,284.464068 353.730453,277.284366 C353.730453,277.04758 353.736922,276.810838 353.749854,276.574405 L357.469051,208.574405 C357.846087,201.680858 363.5458,196.284366 370.44965,196.284366 Z" id="Rectangle" fill="#9B26B6"></path>
                    <rect id="Rectangle-Copy-13" fill="#F1B6FF" x="0" y="61.2843664" width="84" height="134" rx="15"></rect>
                    <rect id="Rectangle-Copy-14" fill="#691B7B" x="3" y="69.2843664" width="78" height="110"></rect>
                    <path d="M373.282437,199.284366 L423.717563,199.284366 C430.672514,199.284366 436.39551,204.758346 436.704709,211.70642 L438.395762,249.70642 C438.714953,256.879023 433.159165,262.952322 425.986562,263.271513 C425.794032,263.280081 425.601336,263.284366 425.408616,263.284366 L371.591384,263.284366 C364.411682,263.284366 358.591384,257.464068 358.591384,250.284366 C358.591384,250.091646 358.59567,249.89895 358.604238,249.70642 L360.295291,211.70642 C360.60449,204.758346 366.327486,199.284366 373.282437,199.284366 Z" id="Rectangle-Copy" fill="#691B7B"></path>
                    <circle id="Oval" fill="#FFFFFF" opacity="0.703688" cx="431" cy="277.284366" r="8"></circle>
                    <circle id="Oval-Copy" fill="#FFFFFF" opacity="0.703688" cx="366" cy="277.284366" r="8"></circle>
                    <g id="Group-3" transform="translate(414.000000, 0.284366)">
                        <g id="Group-2-Copy" transform="translate(11.418803, 12.927273)">
                            <path d="M4.66224477,4.18503854 L150.900218,4.23285119 C152.556308,4.23534893 153.898698,5.57774203 153.901193,7.23383189 L153.917977,58.8886697 C153.92047,60.5455233 152.577761,61.8891054 150.920907,61.8896437 C150.920255,61.889644 150.919603,61.889644 150.918952,61.8876887 L4.68097853,61.8398761 C3.02488868,61.8373783 1.68249829,60.4949852 1.6800039,58.8388954 L1.66321972,7.18405752 C1.66072636,5.527204 3.00343561,4.18362189 4.66028977,4.18308353 C4.66094165,4.18308332 4.66159353,4.18308332 4.66224477,4.18503854 Z" id="Rectangle" fill="#E174FA" transform="translate(77.790598, 33.036364) rotate(3.000000) translate(-77.790598, -33.036364) "></path>
                            <line x1="113.897724" y1="6.95552898" x2="113.916047" y2="63.3478518" id="Line" stroke="#691B7B" stroke-width="2" stroke-dasharray="6" transform="translate(113.906886, 35.151690) rotate(3.000000) translate(-113.906886, -35.151690) "></line>
                            <polygon id="Rectangle" fill="#9B26B6" transform="translate(290.000000, 237.000000) rotate(-45.000000) translate(-290.000000, -237.000000) " points="276.213203 210.485281 312.272078 214.727922 316.514719 250.786797 263.485281 263.514719"></polygon>
                            <circle id="Oval" fill="#9B26B6" cx="290" cy="218" r="30"></circle>
                            <polygon id="Rectangle" fill="#232323" transform="translate(35.241758, 17.728412) rotate(3.000000) translate(-35.241758, -17.728412) " points="9.519207 14.563716 60.9622583 14.5805353 60.9643094 20.8931088 9.52125814 20.8762894"></polygon>
                            <polygon id="Rectangle-Copy-7" fill="#232323" transform="translate(134.720461, 21.499505) rotate(3.000000) translate(-134.720461, -21.499505) " points="119.872529 19.8112972 149.567299 19.821006 149.568393 23.1877118 119.873623 23.1780031"></polygon>
                            <polygon id="Rectangle-Copy-9" fill="#232323" transform="translate(134.151362, 32.426489) rotate(3.000000) translate(-134.151362, -32.426489) " points="119.303431 30.738282 148.9982 30.7479907 148.999294 34.1146965 119.304525 34.1049878"></polygon>
                            <polygon id="Rectangle-Copy-11" fill="#232323" transform="translate(133.582263, 43.353474) rotate(3.000000) translate(-133.582263, -43.353474) " points="118.734332 41.6652667 148.429101 41.6749754 148.430195 45.0416812 118.735426 45.0319725"></polygon>
                            <polygon id="Rectangle-Copy-8" fill="#232323" transform="translate(134.435912, 26.962997) rotate(3.000000) translate(-134.435912, -26.962997) " points="119.58798 25.2747896 149.282749 25.2844983 149.283843 28.6512042 119.589074 28.6414954"></polygon>
                            <polygon id="Rectangle-Copy-10" fill="#232323" transform="translate(133.866813, 37.889982) rotate(3.000000) translate(-133.866813, -37.889982) " points="119.018881 36.2017743 148.713651 36.211483 148.714745 39.5781889 119.019975 39.5684802"></polygon>
                            <polygon id="Rectangle-Copy-12" fill="#232323" transform="translate(133.297714, 48.816966) rotate(3.000000) translate(-133.297714, -48.816966) " points="118.449782 47.128759 148.144552 47.1384678 148.145646 50.5051736 118.450876 50.4954649"></polygon>
                            <polygon id="Rectangle-Copy-5" fill="#232323" transform="translate(55.545396, 33.970363) rotate(3.000000) translate(-55.545396, -33.970363) " points="8.70191712 30.7987616 102.386824 30.829392 102.388875 37.1419654 8.70396826 37.111335"></polygon>
                            <polygon id="Rectangle-Copy-6" fill="#232323" transform="translate(49.777602, 44.201756) rotate(3.000000) translate(-49.777602, -44.201756) " points="8.16219034 41.0318762 91.3909631 41.0590879 91.3930143 47.3716352 8.16424148 47.3444234"></polygon>
                        </g>
                        <rect id="Rectangle-Copy-15" fill="#F1B6FF" x="0" y="0" width="152.726496" height="57.4545455" rx="3"></rect>
                        <line x1="112.939103" y1="0.927204885" x2="112.939103" y2="56.5273406" id="Line-Copy" stroke="#691B7B" stroke-width="2" stroke-dasharray="6"></line>
                        <rect id="Rectangle-Copy-16" fill="#232323" x="7.13675214" y="12.9272727" width="51.3846154" height="5.74545455"></rect>
                        <rect id="Rectangle-Copy-17" fill="#232323" x="117.75641" y="12.9272727" width="29.974359" height="2.87272727"></rect>
                        <rect id="Rectangle-Copy-18" fill="#232323" x="117.75641" y="23.7" width="29.974359" height="2.87272727"></rect>
                        <rect id="Rectangle-Copy-19" fill="#232323" x="117.75641" y="34.4727273" width="29.974359" height="2.87272727"></rect>
                        <rect id="Rectangle-Copy-20" fill="#232323" x="117.75641" y="18.6727273" width="29.974359" height="2.87272727"></rect>
                        <rect id="Rectangle-Copy-21" fill="#232323" x="117.75641" y="29.4454545" width="29.974359" height="2.87272727"></rect>
                        <rect id="Rectangle-Copy-22" fill="#232323" x="117.75641" y="40.2181818" width="29.974359" height="2.87272727"></rect>
                        <rect id="Rectangle-Copy-23" fill="#232323" x="7.13675214" y="28.0090909" width="94.2051282" height="5.74545455"></rect>
                        <rect id="Rectangle-Copy-24" fill="#232323" x="7.85042735" y="38.7818182" width="82.7863248" height="5.74545455"></rect>
                    </g>
                    <ellipse id="Oval-Copy-2" fill="#9B26B6" cx="42" cy="187.784366" rx="6" ry="6.5"></ellipse>
                    <g id="Group" opacity="0.504100981" transform="translate(362.000000, 290.284366)" fill="#050505">
                        <path d="M6.20352858,0.373978249 L6.16587655,26.4277771 C6.1642835,27.5301068 5.27105212,28.4233174 4.16872235,28.4248847 L3.51414135,28.4258154 C2.40957297,28.427386 1.5128702,27.5332295 1.51129966,26.4286612 C1.51129694,26.4267498 1.51129696,26.4248385 1.51129972,26.4229271 L1.54841221,0.742476573 L1.54841221,0.742476573 L6.20352858,0.373978249 Z" id="Rectangle-Copy-3" transform="translate(3.855965, 14.401323) rotate(-355.000000) translate(-3.855965, -14.401323) "></path>
                        <path d="M72.2998652,0.618660322 L74.52753,25.6640583 C74.6253897,26.7642843 73.8128112,27.7355247 72.7125852,27.8333844 C72.7106814,27.8335537 72.7087773,27.8337203 72.706873,27.8338842 L72.0547017,27.8900075 C70.9564301,27.9845205 69.9887493,27.1725591 69.8910879,26.0745629 L67.6345526,0.704576325 L67.6345526,0.704576325 L72.2998652,0.618660322 Z" id="Rectangle-Copy-4"></path>
                        <path d="M37.7351916,-25.0731707 L37.9790941,-25.0731707 C39.0836636,-25.0731707 39.9790941,-24.1777402 39.9790941,-23.0731707 L39.9790941,37.9268293 C39.9790941,39.0313988 39.0836636,39.9268293 37.9790941,39.9268293 L37.7351916,39.9268293 C36.6306221,39.9268293 35.7351916,39.0313988 35.7351916,37.9268293 L35.7351916,-23.0731707 C35.7351916,-24.1777402 36.6306221,-25.0731707 37.7351916,-25.0731707 Z" id="Rectangle" transform="translate(37.857143, 7.426829) rotate(-270.000000) translate(-37.857143, -7.426829) "></path>
                        <path d="M37.7351916,-13.0487805 L37.9790941,-13.0487805 C39.0836636,-13.0487805 39.9790941,-12.15335 39.9790941,-11.0487805 L39.9790941,49.9512195 C39.9790941,51.055789 39.0836636,51.9512195 37.9790941,51.9512195 L37.7351916,51.9512195 C36.6306221,51.9512195 35.7351916,51.055789 35.7351916,49.9512195 L35.7351916,-11.0487805 C35.7351916,-12.15335 36.6306221,-13.0487805 37.7351916,-13.0487805 Z" id="Rectangle-Copy-2" transform="translate(37.857143, 19.451220) rotate(-270.000000) translate(-37.857143, -19.451220) "></path>
                    </g>
                    <path id="Path" d="M330,236.284366 C333.865993,236.284366 337,239.418373 337,243.284366 C337,247.15036 333.865993,250.284366 330,250.284366 C326.473606,250.284366 323.556248,247.676776 323.070921,244.284591 L318,244.284366 C317.447715,244.284366 317,243.836651 317,243.284366 C317,242.771531 317.38604,242.348859 317.883379,242.291094 L318,242.284366 L323.07089,242.284358 C323.556123,238.892068 326.473531,236.284366 330,236.284366 Z M330,238.284366 C327.238576,238.284366 325,240.522943 325,243.284366 C325,246.04579 327.238576,248.284366 330,248.284366 C332.761424,248.284366 335,246.04579 335,243.284366 C335,240.522943 332.761424,238.284366 330,238.284366 Z M306,242.284366 C306.552285,242.284366 307,242.732082 307,243.284366 C307,243.797202 306.61396,244.219874 306.116621,244.277639 L306,244.284366 L300,244.284366 C299.447715,244.284366 299,243.836651 299,243.284366 C299,242.771531 299.38604,242.348859 299.883379,242.291094 L300,242.284366 L306,242.284366 Z M288,242.284366 C288.552285,242.284366 289,242.732082 289,243.284366 C289,243.797202 288.61396,244.219874 288.116621,244.277639 L288,244.284366 L282,244.284366 C281.447715,244.284366 281,243.836651 281,243.284366 C281,242.771531 281.38604,242.348859 281.883379,242.291094 L282,242.284366 L288,242.284366 Z M270,242.284366 C270.552285,242.284366 271,242.732082 271,243.284366 C271,243.797202 270.61396,244.219874 270.116621,244.277639 L270,244.284366 L264,244.284366 C263.447715,244.284366 263,243.836651 263,243.284366 C263,242.771531 263.38604,242.348859 263.883379,242.291094 L264,242.284366 L270,242.284366 Z M260.178972,228.105394 C260.691808,228.105394 261.114479,228.491434 261.172244,228.988773 L261.178972,229.105394 L261.178972,235.105394 C261.178972,235.657679 260.731257,236.105394 260.178972,236.105394 C259.666136,236.105394 259.243465,235.719354 259.1857,235.222015 L259.178972,235.105394 L259.178972,229.105394 C259.178972,228.553109 259.626687,228.105394 260.178972,228.105394 Z M260.178972,210.105394 C260.691808,210.105394 261.114479,210.491434 261.172244,210.988773 L261.178972,211.105394 L261.178972,217.105394 C261.178972,217.657679 260.731257,218.105394 260.178972,218.105394 C259.666136,218.105394 259.243465,217.719354 259.1857,217.222015 L259.178972,217.105394 L259.178972,211.105394 C259.178972,210.553109 259.626687,210.105394 260.178972,210.105394 Z M260.178972,192.105394 C260.691808,192.105394 261.114479,192.491434 261.172244,192.988773 L261.178972,193.105394 L261.178972,199.105394 C261.178972,199.657679 260.731257,200.105394 260.178972,200.105394 C259.666136,200.105394 259.243465,199.719354 259.1857,199.222015 L259.178972,199.105394 L259.178972,193.105394 C259.178972,192.553109 259.626687,192.105394 260.178972,192.105394 Z M260.178972,174.105394 C260.691808,174.105394 261.114479,174.491434 261.172244,174.988773 L261.178972,175.105394 L261.178972,181.105394 C261.178972,181.657679 260.731257,182.105394 260.178972,182.105394 C259.666136,182.105394 259.243465,181.719354 259.1857,181.222015 L259.178972,181.105394 L259.178972,175.105394 C259.178972,174.553109 259.626687,174.105394 260.178972,174.105394 Z M122,151.284366 C125.865993,151.284366 129,154.418373 129,158.284366 C129,162.15036 125.865993,165.284366 122,165.284366 C118.134007,165.284366 115,162.15036 115,158.284366 C115,154.418373 118.134007,151.284366 122,151.284366 Z M260.178972,157.284366 L261.178972,158.284366 L261.178972,163.105394 C261.178972,163.657679 260.731257,164.105394 260.178972,164.105394 C259.666136,164.105394 259.243465,163.719354 259.1857,163.222015 L259.178972,163.105394 L259.178,159.284 L259,159.284366 C258.487164,159.284366 258.064493,158.898326 258.006728,158.400988 L258,158.284366 C258,157.771531 258.38604,157.348859 258.883379,157.291094 L259,157.284366 L260.178972,157.284366 Z M122,153.284366 C119.238576,153.284366 117,155.522943 117,158.284366 C117,161.04579 119.238576,163.284366 122,163.284366 C124.761424,163.284366 127,161.04579 127,158.284366 C127,155.522943 124.761424,153.284366 122,153.284366 Z M247,157.284366 C247.552285,157.284366 248,157.732082 248,158.284366 C248,158.797202 247.61396,159.219874 247.116621,159.277639 L247,159.284366 L241,159.284366 C240.447715,159.284366 240,158.836651 240,158.284366 C240,157.771531 240.38604,157.348859 240.883379,157.291094 L241,157.284366 L247,157.284366 Z M229,157.284366 C229.552285,157.284366 230,157.732082 230,158.284366 C230,158.797202 229.61396,159.219874 229.116621,159.277639 L229,159.284366 L223,159.284366 C222.447715,159.284366 222,158.836651 222,158.284366 C222,157.771531 222.38604,157.348859 222.883379,157.291094 L223,157.284366 L229,157.284366 Z M211,157.284366 C211.552285,157.284366 212,157.732082 212,158.284366 C212,158.797202 211.61396,159.219874 211.116621,159.277639 L211,159.284366 L205,159.284366 C204.447715,159.284366 204,158.836651 204,158.284366 C204,157.771531 204.38604,157.348859 204.883379,157.291094 L205,157.284366 L211,157.284366 Z M193,157.284366 C193.552285,157.284366 194,157.732082 194,158.284366 C194,158.797202 193.61396,159.219874 193.116621,159.277639 L193,159.284366 L187,159.284366 C186.447715,159.284366 186,158.836651 186,158.284366 C186,157.771531 186.38604,157.348859 186.883379,157.291094 L187,157.284366 L193,157.284366 Z M175,157.284366 C175.552285,157.284366 176,157.732082 176,158.284366 C176,158.797202 175.61396,159.219874 175.116621,159.277639 L175,159.284366 L169,159.284366 C168.447715,159.284366 168,158.836651 168,158.284366 C168,157.771531 168.38604,157.348859 168.883379,157.291094 L169,157.284366 L175,157.284366 Z M157,157.284366 C157.552285,157.284366 158,157.732082 158,158.284366 C158,158.797202 157.61396,159.219874 157.116621,159.277639 L157,159.284366 L151,159.284366 C150.447715,159.284366 150,158.836651 150,158.284366 C150,157.771531 150.38604,157.348859 150.883379,157.291094 L151,157.284366 L157,157.284366 Z M139,157.284366 C139.552285,157.284366 140,157.732082 140,158.284366 C140,158.797202 139.61396,159.219874 139.116621,159.277639 L139,159.284366 L133,159.284366 C132.447715,159.284366 132,158.836651 132,158.284366 C132,157.771531 132.38604,157.348859 132.883379,157.291094 L133,157.284366 L139,157.284366 Z" fill="#E57DFD" fill-rule="nonzero"></path>
                    <path id="Path-Copy-2" d="M191.308201,447.864509 L191.985993,447.851481 C192.538172,447.840685 192.994554,448.279562 193.005351,448.831741 C193.015376,449.344479 192.637673,449.774616 192.141558,449.842093 L192.025091,449.851099 L191.347335,449.864359 C190.928511,453.265487 188.062639,455.929723 184.536844,455.998662 C180.671589,456.074239 177.476914,453.002098 177.401338,449.136844 C177.325761,445.271589 180.397902,442.076914 184.263156,442.001338 C187.788876,441.9324 190.756653,444.48246 191.308201,447.864509 Z M184.302255,444.000956 C181.541358,444.054939 179.346972,446.336849 179.400956,449.097745 C179.454939,451.858642 181.736849,454.053028 184.497745,453.999044 C187.210428,453.946004 189.376214,451.742169 189.399825,449.046448 C189.390202,448.999542 189.385743,448.951483 189.384786,448.902533 C189.38383,448.853668 189.386396,448.805553 189.392251,448.75843 L189.399044,448.902255 C189.345061,446.141358 187.063151,443.946972 184.302255,444.000956 Z M209.982553,447.499598 C210.534732,447.488801 210.991114,447.927678 211.001911,448.479857 C211.011936,448.992595 210.634233,449.422732 210.138119,449.490209 L210.021651,449.499215 L204.022798,449.61651 C203.470619,449.627307 203.014236,449.188429 203.00344,448.63625 C202.993414,448.123512 203.371118,447.693375 203.867232,447.625898 L203.9837,447.616892 L209.982553,447.499598 Z M221,440.284366 C221.512836,440.284366 221.935507,440.670407 221.993272,441.167745 L222,441.284366 L222,447.284366 C222,447.836651 221.552285,448.284366 221,448.284366 C220.487164,448.284366 220.064493,447.898326 220.006728,447.400988 L220,447.284366 L220,441.284366 C220,440.732082 220.447715,440.284366 221,440.284366 Z M221,422.284366 C221.512836,422.284366 221.935507,422.670407 221.993272,423.167745 L222,423.284366 L222,429.284366 C222,429.836651 221.552285,430.284366 221,430.284366 C220.487164,430.284366 220.064493,429.898326 220.006728,429.400988 L220,429.284366 L220,423.284366 C220,422.732082 220.447715,422.284366 221,422.284366 Z M221,404.284366 C221.512836,404.284366 221.935507,404.670407 221.993272,405.167745 L222,405.284366 L222,411.284366 C222,411.836651 221.552285,412.284366 221,412.284366 C220.487164,412.284366 220.064493,411.898326 220.006728,411.400988 L220,411.284366 L220,405.284366 C220,404.732082 220.447715,404.284366 221,404.284366 Z M221,386.284366 C221.512836,386.284366 221.935507,386.670407 221.993272,387.167745 L222,387.284366 L222,393.284366 C222,393.836651 221.552285,394.284366 221,394.284366 C220.487164,394.284366 220.064493,393.898326 220.006728,393.400988 L220,393.284366 L220,387.284366 C220,386.732082 220.447715,386.284366 221,386.284366 Z M221,368.284366 C221.512836,368.284366 221.935507,368.670407 221.993272,369.167745 L222,369.284366 L222,375.284366 C222,375.836651 221.552285,376.284366 221,376.284366 C220.487164,376.284366 220.064493,375.898326 220.006728,375.400988 L220,375.284366 L220,369.284366 C220,368.732082 220.447715,368.284366 221,368.284366 Z M221,350.284366 C221.512836,350.284366 221.935507,350.670407 221.993272,351.167745 L222,351.284366 L222,357.284366 C222,357.836651 221.552285,358.284366 221,358.284366 C220.487164,358.284366 220.064493,357.898326 220.006728,357.400988 L220,357.284366 L220,351.284366 C220,350.732082 220.447715,350.284366 221,350.284366 Z M359,344.284366 C359.552285,344.284366 360,344.732082 360,345.284366 C360,345.797202 359.61396,346.219874 359.116621,346.277639 L359,346.284366 L353,346.284366 C352.447715,346.284366 352,345.836651 352,345.284366 C352,344.771531 352.38604,344.348859 352.883379,344.291094 L353,344.284366 L359,344.284366 Z M269,344.284366 C269.552285,344.284366 270,344.732082 270,345.284366 C270,345.797202 269.61396,346.219874 269.116621,346.277639 L269,346.284366 L263,346.284366 C262.447715,346.284366 262,345.836651 262,345.284366 C262,344.771531 262.38604,344.348859 262.883379,344.291094 L263,344.284366 L269,344.284366 Z M431,344.284366 C431.552285,344.284366 432,344.732082 432,345.284366 C432,345.797202 431.61396,346.219874 431.116621,346.277639 L431,346.284366 L425,346.284366 C424.447715,346.284366 424,345.836651 424,345.284366 C424,344.771531 424.38604,344.348859 424.883379,344.291094 L425,344.284366 L431,344.284366 Z M519.178972,342.463339 C519.691808,342.463339 520.114479,342.849379 520.172244,343.346717 L520.178972,343.463339 L520.178972,345.284366 L519.178972,346.284366 L515,346.284366 C514.447715,346.284366 514,345.836651 514,345.284366 C514,344.771531 514.38604,344.348859 514.883379,344.291094 L515,344.284366 L518.178,344.284 L518.178972,343.463339 C518.178972,342.950503 518.565012,342.527831 519.062351,342.470066 L519.178972,342.463339 Z M503,344.284366 C503.552285,344.284366 504,344.732082 504,345.284366 C504,345.797202 503.61396,346.219874 503.116621,346.277639 L503,346.284366 L497,346.284366 C496.447715,346.284366 496,345.836651 496,345.284366 C496,344.771531 496.38604,344.348859 496.883379,344.291094 L497,344.284366 L503,344.284366 Z M485,344.284366 C485.552285,344.284366 486,344.732082 486,345.284366 C486,345.797202 485.61396,346.219874 485.116621,346.277639 L485,346.284366 L479,346.284366 C478.447715,346.284366 478,345.836651 478,345.284366 C478,344.771531 478.38604,344.348859 478.883379,344.291094 L479,344.284366 L485,344.284366 Z M467,344.284366 C467.552285,344.284366 468,344.732082 468,345.284366 C468,345.797202 467.61396,346.219874 467.116621,346.277639 L467,346.284366 L461,346.284366 C460.447715,346.284366 460,345.836651 460,345.284366 C460,344.771531 460.38604,344.348859 460.883379,344.291094 L461,344.284366 L467,344.284366 Z M449,344.284366 C449.552285,344.284366 450,344.732082 450,345.284366 C450,345.797202 449.61396,346.219874 449.116621,346.277639 L449,346.284366 L443,346.284366 C442.447715,346.284366 442,345.836651 442,345.284366 C442,344.771531 442.38604,344.348859 442.883379,344.291094 L443,344.284366 L449,344.284366 Z M413,344.284366 C413.552285,344.284366 414,344.732082 414,345.284366 C414,345.797202 413.61396,346.219874 413.116621,346.277639 L413,346.284366 L407,346.284366 C406.447715,346.284366 406,345.836651 406,345.284366 C406,344.771531 406.38604,344.348859 406.883379,344.291094 L407,344.284366 L413,344.284366 Z M395,344.284366 C395.552285,344.284366 396,344.732082 396,345.284366 C396,345.797202 395.61396,346.219874 395.116621,346.277639 L395,346.284366 L389,346.284366 C388.447715,346.284366 388,345.836651 388,345.284366 C388,344.771531 388.38604,344.348859 388.883379,344.291094 L389,344.284366 L395,344.284366 Z M377,344.284366 C377.552285,344.284366 378,344.732082 378,345.284366 C378,345.797202 377.61396,346.219874 377.116621,346.277639 L377,346.284366 L371,346.284366 C370.447715,346.284366 370,345.836651 370,345.284366 C370,344.771531 370.38604,344.348859 370.883379,344.291094 L371,344.284366 L377,344.284366 Z M341,344.284366 C341.552285,344.284366 342,344.732082 342,345.284366 C342,345.797202 341.61396,346.219874 341.116621,346.277639 L341,346.284366 L335,346.284366 C334.447715,346.284366 334,345.836651 334,345.284366 C334,344.771531 334.38604,344.348859 334.883379,344.291094 L335,344.284366 L341,344.284366 Z M323,344.284366 C323.552285,344.284366 324,344.732082 324,345.284366 C324,345.797202 323.61396,346.219874 323.116621,346.277639 L323,346.284366 L317,346.284366 C316.447715,346.284366 316,345.836651 316,345.284366 C316,344.771531 316.38604,344.348859 316.883379,344.291094 L317,344.284366 L323,344.284366 Z M305,344.284366 C305.552285,344.284366 306,344.732082 306,345.284366 C306,345.797202 305.61396,346.219874 305.116621,346.277639 L305,346.284366 L299,346.284366 C298.447715,346.284366 298,345.836651 298,345.284366 C298,344.771531 298.38604,344.348859 298.883379,344.291094 L299,344.284366 L305,344.284366 Z M287,344.284366 C287.552285,344.284366 288,344.732082 288,345.284366 C288,345.797202 287.61396,346.219874 287.116621,346.277639 L287,346.284366 L281,346.284366 C280.447715,346.284366 280,345.836651 280,345.284366 C280,344.771531 280.38604,344.348859 280.883379,344.291094 L281,344.284366 L287,344.284366 Z M251,344.284366 C251.552285,344.284366 252,344.732082 252,345.284366 C252,345.797202 251.61396,346.219874 251.116621,346.277639 L251,346.284366 L245,346.284366 C244.447715,346.284366 244,345.836651 244,345.284366 C244,344.771531 244.38604,344.348859 244.883379,344.291094 L245,344.284366 L251,344.284366 Z M233,344.284366 C233.552285,344.284366 234,344.732082 234,345.284366 C234,345.797202 233.61396,346.219874 233.116621,346.277639 L233,346.284366 L227,346.284366 C226.447715,346.284366 226,345.836651 226,345.284366 C226,344.771531 226.38604,344.348859 226.883379,344.291094 L227,344.284366 L233,344.284366 Z M519.178972,324.463339 C519.691808,324.463339 520.114479,324.849379 520.172244,325.346717 L520.178972,325.463339 L520.178972,331.463339 C520.178972,332.015623 519.731257,332.463339 519.178972,332.463339 C518.666136,332.463339 518.243465,332.077298 518.1857,331.57996 L518.178972,331.463339 L518.178972,325.463339 C518.178972,324.911054 518.626687,324.463339 519.178972,324.463339 Z M519.178972,306.463339 C519.691808,306.463339 520.114479,306.849379 520.172244,307.346717 L520.178972,307.463339 L520.178972,313.463339 C520.178972,314.015623 519.731257,314.463339 519.178972,314.463339 C518.666136,314.463339 518.243465,314.077298 518.1857,313.57996 L518.178972,313.463339 L518.178972,307.463339 C518.178972,306.911054 518.626687,306.463339 519.178972,306.463339 Z M519.178972,288.463339 C519.691808,288.463339 520.114479,288.849379 520.172244,289.346717 L520.178972,289.463339 L520.178972,295.463339 C520.178972,296.015623 519.731257,296.463339 519.178972,296.463339 C518.666136,296.463339 518.243465,296.077298 518.1857,295.57996 L518.178972,295.463339 L518.178972,289.463339 C518.178972,288.911054 518.626687,288.463339 519.178972,288.463339 Z M519.178972,270.463339 C519.691808,270.463339 520.114479,270.849379 520.172244,271.346717 L520.178972,271.463339 L520.178972,277.463339 C520.178972,278.015623 519.731257,278.463339 519.178972,278.463339 C518.666136,278.463339 518.243465,278.077298 518.1857,277.57996 L518.178972,277.463339 L518.178972,271.463339 C518.178972,270.911054 518.626687,270.463339 519.178972,270.463339 Z M679,256.284366 C682.865993,256.284366 686,259.418373 686,263.284366 C686,267.15036 682.865993,270.284366 679,270.284366 C675.473606,270.284366 672.556248,267.676776 672.070921,264.284591 L667,264.284366 C666.447715,264.284366 666,263.836651 666,263.284366 C666,262.771531 666.38604,262.348859 666.883379,262.291094 L667,262.284366 L672.07089,262.284358 C672.556123,258.892068 675.473531,256.284366 679,256.284366 Z M679,258.284366 C676.238576,258.284366 674,260.522943 674,263.284366 C674,266.04579 676.238576,268.284366 679,268.284366 C681.761424,268.284366 684,266.04579 684,263.284366 C684,260.522943 681.761424,258.284366 679,258.284366 Z M529,262.284366 C529.552285,262.284366 530,262.732082 530,263.284366 C530,263.797202 529.61396,264.219874 529.116621,264.277639 L529,264.284366 L523,264.284366 C522.447715,264.284366 522,263.836651 522,263.284366 C522,262.771531 522.38604,262.348859 522.883379,262.291094 L523,262.284366 L529,262.284366 Z M547,262.284366 C547.552285,262.284366 548,262.732082 548,263.284366 C548,263.797202 547.61396,264.219874 547.116621,264.277639 L547,264.284366 L541,264.284366 C540.447715,264.284366 540,263.836651 540,263.284366 C540,262.771531 540.38604,262.348859 540.883379,262.291094 L541,262.284366 L547,262.284366 Z M565,262.284366 C565.552285,262.284366 566,262.732082 566,263.284366 C566,263.797202 565.61396,264.219874 565.116621,264.277639 L565,264.284366 L559,264.284366 C558.447715,264.284366 558,263.836651 558,263.284366 C558,262.771531 558.38604,262.348859 558.883379,262.291094 L559,262.284366 L565,262.284366 Z M583,262.284366 C583.552285,262.284366 584,262.732082 584,263.284366 C584,263.797202 583.61396,264.219874 583.116621,264.277639 L583,264.284366 L577,264.284366 C576.447715,264.284366 576,263.836651 576,263.284366 C576,262.771531 576.38604,262.348859 576.883379,262.291094 L577,262.284366 L583,262.284366 Z M601,262.284366 C601.552285,262.284366 602,262.732082 602,263.284366 C602,263.797202 601.61396,264.219874 601.116621,264.277639 L601,264.284366 L595,264.284366 C594.447715,264.284366 594,263.836651 594,263.284366 C594,262.771531 594.38604,262.348859 594.883379,262.291094 L595,262.284366 L601,262.284366 Z M619,262.284366 C619.552285,262.284366 620,262.732082 620,263.284366 C620,263.797202 619.61396,264.219874 619.116621,264.277639 L619,264.284366 L613,264.284366 C612.447715,264.284366 612,263.836651 612,263.284366 C612,262.771531 612.38604,262.348859 612.883379,262.291094 L613,262.284366 L619,262.284366 Z M637,262.284366 C637.552285,262.284366 638,262.732082 638,263.284366 C638,263.797202 637.61396,264.219874 637.116621,264.277639 L637,264.284366 L631,264.284366 C630.447715,264.284366 630,263.836651 630,263.284366 C630,262.771531 630.38604,262.348859 630.883379,262.291094 L631,262.284366 L637,262.284366 Z M655,262.284366 C655.552285,262.284366 656,262.732082 656,263.284366 C656,263.797202 655.61396,264.219874 655.116621,264.277639 L655,264.284366 L649,264.284366 C648.447715,264.284366 648,263.836651 648,263.284366 C648,262.771531 648.38604,262.348859 648.883379,262.291094 L649,262.284366 L655,262.284366 Z" fill="#E57DFD" fill-rule="nonzero"></path>
                    <path id="Path-Copy" d="M122,95.2843664 C125.865993,95.2843664 129,98.4183732 129,102.284366 C129,106.15036 125.865993,109.284366 122,109.284366 C118.134007,109.284366 115,106.15036 115,102.284366 C115,98.4183732 118.134007,95.2843664 122,95.2843664 Z M122,97.2843664 C119.238576,97.2843664 117,99.5229427 117,102.284366 C117,105.04579 119.238576,107.284366 122,107.284366 C124.761424,107.284366 127,105.04579 127,102.284366 C127,99.5229427 124.761424,97.2843664 122,97.2843664 Z M198,101.284366 C198.552285,101.284366 199,101.732082 199,102.284366 C199,102.797202 198.61396,103.219874 198.116621,103.277639 L198,103.284366 L192,103.284366 C191.447715,103.284366 191,102.836651 191,102.284366 C191,101.771531 191.38604,101.348859 191.883379,101.291094 L192,101.284366 L198,101.284366 Z M180,101.284366 C180.552285,101.284366 181,101.732082 181,102.284366 C181,102.797202 180.61396,103.219874 180.116621,103.277639 L180,103.284366 L174,103.284366 C173.447715,103.284366 173,102.836651 173,102.284366 C173,101.771531 173.38604,101.348859 173.883379,101.291094 L174,101.284366 L180,101.284366 Z M162,101.284366 C162.552285,101.284366 163,101.732082 163,102.284366 C163,102.797202 162.61396,103.219874 162.116621,103.277639 L162,103.284366 L156,103.284366 C155.447715,103.284366 155,102.836651 155,102.284366 C155,101.771531 155.38604,101.348859 155.883379,101.291094 L156,101.284366 L162,101.284366 Z M144,101.284366 C144.552285,101.284366 145,101.732082 145,102.284366 C145,102.797202 144.61396,103.219874 144.116621,103.277639 L144,103.284366 L138,103.284366 C137.447715,103.284366 137,102.836651 137,102.284366 C137,101.771531 137.38604,101.348859 137.883379,101.291094 L138,101.284366 L144,101.284366 Z M202.922227,88.2065939 C203.435063,88.2065939 203.857735,88.5926341 203.9155,89.0899728 L203.922227,89.2065939 L203.922227,95.2065939 C203.922227,95.7588787 203.474512,96.2065939 202.922227,96.2065939 C202.409392,96.2065939 201.98672,95.8205537 201.928955,95.323215 L201.922227,95.2065939 L201.922227,89.2065939 C201.922227,88.6543092 202.369943,88.2065939 202.922227,88.2065939 Z M202.922227,70.2065939 C203.435063,70.2065939 203.857735,70.5926341 203.9155,71.0899728 L203.922227,71.2065939 L203.922227,77.2065939 C203.922227,77.7588787 203.474512,78.2065939 202.922227,78.2065939 C202.409392,78.2065939 201.98672,77.8205537 201.928955,77.323215 L201.922227,77.2065939 L201.922227,71.2065939 C201.922227,70.6543092 202.369943,70.2065939 202.922227,70.2065939 Z M202.922227,52.2065939 C203.435063,52.2065939 203.857735,52.5926341 203.9155,53.0899728 L203.922227,53.2065939 L203.922227,59.2065939 C203.922227,59.7588787 203.474512,60.2065939 202.922227,60.2065939 C202.409392,60.2065939 201.98672,59.8205537 201.928955,59.323215 L201.922227,59.2065939 L201.922227,53.2065939 C201.922227,52.6543092 202.369943,52.2065939 202.922227,52.2065939 Z M380,37.2843664 C383.865993,37.2843664 387,40.4183732 387,44.2843664 C387,48.1503597 383.865993,51.2843664 380,51.2843664 C376.473606,51.2843664 373.556248,48.6767759 373.070921,45.2845915 L368,45.2843664 C367.447715,45.2843664 367,44.8366512 367,44.2843664 C367,43.7715306 367.38604,43.3488593 367.883379,43.2910941 L368,43.2843664 L373.07089,43.2843582 C373.556123,39.8920681 376.473531,37.2843664 380,37.2843664 Z M380,39.2843664 C377.238576,39.2843664 375,41.5229427 375,44.2843664 C375,47.0457902 377.238576,49.2843664 380,49.2843664 C382.761424,49.2843664 385,47.0457902 385,44.2843664 C385,41.5229427 382.761424,39.2843664 380,39.2843664 Z M356,43.2843664 C356.552285,43.2843664 357,43.7320817 357,44.2843664 C357,44.7972023 356.61396,45.2198736 356.116621,45.2776387 L356,45.2843664 L350,45.2843664 C349.447715,45.2843664 349,44.8366512 349,44.2843664 C349,43.7715306 349.38604,43.3488593 349.883379,43.2910941 L350,43.2843664 L356,43.2843664 Z M338,43.2843664 C338.552285,43.2843664 339,43.7320817 339,44.2843664 C339,44.7972023 338.61396,45.2198736 338.116621,45.2776387 L338,45.2843664 L332,45.2843664 C331.447715,45.2843664 331,44.8366512 331,44.2843664 C331,43.7715306 331.38604,43.3488593 331.883379,43.2910941 L332,43.2843664 L338,43.2843664 Z M320,43.2843664 C320.552285,43.2843664 321,43.7320817 321,44.2843664 C321,44.7972023 320.61396,45.2198736 320.116621,45.2776387 L320,45.2843664 L314,45.2843664 C313.447715,45.2843664 313,44.8366512 313,44.2843664 C313,43.7715306 313.38604,43.3488593 313.883379,43.2910941 L314,43.2843664 L320,43.2843664 Z M302,43.2843664 C302.552285,43.2843664 303,43.7320817 303,44.2843664 C303,44.7972023 302.61396,45.2198736 302.116621,45.2776387 L302,45.2843664 L296,45.2843664 C295.447715,45.2843664 295,44.8366512 295,44.2843664 C295,43.7715306 295.38604,43.3488593 295.883379,43.2910941 L296,43.2843664 L302,43.2843664 Z M284,43.2843664 C284.552285,43.2843664 285,43.7320817 285,44.2843664 C285,44.7972023 284.61396,45.2198736 284.116621,45.2776387 L284,45.2843664 L278,45.2843664 C277.447715,45.2843664 277,44.8366512 277,44.2843664 C277,43.7715306 277.38604,43.3488593 277.883379,43.2910941 L278,43.2843664 L284,43.2843664 Z M266,43.2843664 C266.552285,43.2843664 267,43.7320817 267,44.2843664 C267,44.7972023 266.61396,45.2198736 266.116621,45.2776387 L266,45.2843664 L260,45.2843664 C259.447715,45.2843664 259,44.8366512 259,44.2843664 C259,43.7715306 259.38604,43.3488593 259.883379,43.2910941 L260,43.2843664 L266,43.2843664 Z M248,43.2843664 C248.552285,43.2843664 249,43.7320817 249,44.2843664 C249,44.7972023 248.61396,45.2198736 248.116621,45.2776387 L248,45.2843664 L242,45.2843664 C241.447715,45.2843664 241,44.8366512 241,44.2843664 C241,43.7715306 241.38604,43.3488593 241.883379,43.2910941 L242,43.2843664 L248,43.2843664 Z M230,43.2843664 C230.552285,43.2843664 231,43.7320817 231,44.2843664 C231,44.7972023 230.61396,45.2198736 230.116621,45.2776387 L230,45.2843664 L224,45.2843664 C223.447715,45.2843664 223,44.8366512 223,44.2843664 C223,43.7715306 223.38604,43.3488593 223.883379,43.2910941 L224,43.2843664 L230,43.2843664 Z M212,43.2843664 C212.552285,43.2843664 213,43.7320817 213,44.2843664 C213,44.7972023 212.61396,45.2198736 212.116621,45.2776387 L212,45.2843664 L206,45.2843664 C205.447715,45.2843664 205,44.8366512 205,44.2843664 C205,43.7715306 205.38604,43.3488593 205.883379,43.2910941 L206,43.2843664 L212,43.2843664 Z" fill="#E57DFD" fill-rule="nonzero"></path>
                </g>
                <rect id="Rectangle" fill="#9B26B6" x="236.251613" y="354.284366" width="5.49677419" height="102" rx="2"></rect>
                <ellipse id="Oval" fill="#691B7B" cx="239" cy="362.784366" rx="28.4" ry="28.5"></ellipse>
            </g>
        </g>
    </g>
</svg>