<?xml version="1.0" encoding="UTF-8"?>
<svg width="813px" height="449px" viewBox="0 0 813 449" version="1.1" xmlns="http://www.w3.org/2000/svg" xmlns:xlink="http://www.w3.org/1999/xlink">
    <title>Group 4</title>
    <g id="Page-1" stroke="none" stroke-width="1" fill="none" fill-rule="evenodd">
        <g id="Desktop-HD" transform="translate(-429.000000, -244.000000)">
            <g id="Group-4" transform="translate(429.000000, 244.715634)">
                <path d="M513.538926,274.284366 L602.461074,274.284366 C609.364468,274.284366 615.063971,279.680169 615.441608,286.573226 L621.248833,392.573226 C621.641585,399.742177 616.14839,405.872149 608.979439,406.264901 C608.742614,406.277876 608.505479,406.284366 608.268299,406.284366 L507.731701,406.284366 C500.552,406.284366 494.731701,400.464068 494.731701,393.284366 C494.731701,393.047186 494.738192,392.810051 494.751167,392.573226 L500.558392,286.573226 C500.936029,279.680169 506.635532,274.284366 513.538926,274.284366 Z" id="Rectangle" fill="#FFFFFF" opacity="0.503688267"></path>
                <rect id="Rectangle-Copy-13" fill-opacity="0.5" fill="#FFFFFF" x="0" y="86.2843664" width="117" height="188" rx="15"></rect>
                <rect id="Rectangle-Copy-14" fill-opacity="0.5" fill="#232323" x="4" y="96.2843664" width="109" height="154"></rect>
                <path d="M516.51517,277.284366 L599.48483,277.284366 C606.44062,277.284366 612.163996,282.759623 612.472073,289.708588 L615.398129,355.708588 C615.716123,362.881244 610.159321,368.953615 602.986665,369.271609 C602.794856,369.280113 602.602883,369.284366 602.410886,369.284366 L513.589114,369.284366 C506.409412,369.284366 500.589114,363.464068 500.589114,356.284366 C500.589114,356.092369 500.593367,355.900396 500.601871,355.708588 L503.527927,289.708588 C503.836004,282.759623 509.55938,277.284366 516.51517,277.284366 Z" id="Rectangle-Copy" fill="#232323" opacity="0.503688267"></path>
                <circle id="Oval" fill="#FFFFFF" opacity="0.503688267" cx="603.5" cy="387.784366" r="11.5"></circle>
                <circle id="Oval-Copy" fill="#FFFFFF" opacity="0.503688267" cx="512.5" cy="387.784366" r="11.5"></circle>
                <g id="Group-3" opacity="0.5" transform="translate(578.667794, 0.000000)">
                    <g id="Group-2-Copy" transform="translate(16.000000, 18.000000)">
                        <path d="M5.34398049,5.85954045 L212.65602,5.85954045 C214.312874,5.85954045 215.65602,7.2026862 215.65602,8.85954045 L215.65602,83.1404595 C215.65602,84.7973138 214.312874,86.1404595 212.65602,86.1404595 L5.34398049,86.1404595 C3.68712625,86.1404595 2.34398049,84.7973138 2.34398049,83.1404595 L2.34398049,8.85954045 C2.34398049,7.2026862 3.68712625,5.85954045 5.34398049,5.85954045 Z" id="Rectangle" fill="#D8D8D8" transform="translate(109.000000, 46.000000) rotate(3.000000) translate(-109.000000, -46.000000) "></path>
                        <line x1="159.606175" y1="9.68423893" x2="159.605935" y2="88.2065445" id="Line" stroke="#979797" stroke-width="3" stroke-dasharray="6" transform="translate(159.606055, 48.945392) rotate(3.000000) translate(-159.606055, -48.945392) "></line>
                        <polygon id="Rectangle" fill="#232323" transform="translate(49.380667, 24.685131) rotate(3.000000) translate(-49.380667, -24.685131) " points="13.3403638 20.2903361 85.4209974 20.2901159 85.4209706 29.0799262 13.340337 29.0801464"></polygon>
                        <polygon id="Rectangle-Copy-7" fill="#232323" transform="translate(188.769987, 29.936019) rotate(3.000000) translate(-188.769987, -29.936019) " points="167.966234 27.5921331 209.573755 27.592006 209.57374 32.2799049 167.96622 32.2800319"></polygon>
                        <polygon id="Rectangle-Copy-9" fill="#232323" transform="translate(187.972568, 45.150808) rotate(3.000000) translate(-187.972568, -45.150808) " points="167.168815 42.8069219 208.776335 42.8067949 208.77632 47.4946937 167.1688 47.4948208"></polygon>
                        <polygon id="Rectangle-Copy-11" fill="#232323" transform="translate(187.175148, 60.365597) rotate(3.000000) translate(-187.175148, -60.365597) " points="166.371395 58.0217108 207.978915 58.0215837 207.978901 62.7094825 166.37138 62.7096096"></polygon>
                        <polygon id="Rectangle-Copy-8" fill="#232323" transform="translate(188.371277, 37.543413) rotate(3.000000) translate(-188.371277, -37.543413) " points="167.567525 35.1995275 209.175045 35.1994004 209.17503 39.8872993 167.56751 39.8874263"></polygon>
                        <polygon id="Rectangle-Copy-10" fill="#232323" transform="translate(187.573858, 52.758202) rotate(3.000000) translate(-187.573858, -52.758202) " points="166.770105 50.4143163 208.377625 50.4141893 208.377611 55.1020881 166.77009 55.1022152"></polygon>
                        <polygon id="Rectangle-Copy-12" fill="#232323" transform="translate(186.776438, 67.972991) rotate(3.000000) translate(-186.776438, -67.972991) " points="165.972685 65.6291052 207.580205 65.6289781 207.580191 70.3168769 165.97267 70.317004"></polygon>
                        <polygon id="Rectangle-Copy-5" fill="#232323" transform="translate(77.830076, 47.300506) rotate(3.000000) translate(-77.830076, -47.300506) " points="12.195691 42.9058014 143.464487 42.9054005 143.46446 51.6952108 12.1956642 51.6956117"></polygon>
                        <polygon id="Rectangle-Copy-6" fill="#232323" transform="translate(69.748097, 61.546740) rotate(3.000000) translate(-69.748097, -61.546740) " points="11.4389799 57.1520312 128.057241 57.151675 128.057214 65.9414488 11.4389531 65.941805"></polygon>
                    </g>
                    <rect id="Rectangle-Copy-15" fill="#FFFFFF" x="0" y="0" width="214" height="80" rx="3"></rect>
                    <line x1="158.25" y1="1.29104478" x2="158.25" y2="78.7089552" id="Line-Copy" stroke="#979797" stroke-width="3" stroke-dasharray="6"></line>
                    <rect id="Rectangle-Copy-16" fill="#232323" x="10" y="18" width="72" height="8"></rect>
                    <rect id="Rectangle-Copy-17" fill="#232323" x="165" y="18" width="42" height="4"></rect>
                    <rect id="Rectangle-Copy-18" fill="#232323" x="165" y="33" width="42" height="4"></rect>
                    <rect id="Rectangle-Copy-19" fill="#232323" x="165" y="48" width="42" height="4"></rect>
                    <rect id="Rectangle-Copy-20" fill="#232323" x="165" y="26" width="42" height="4"></rect>
                    <rect id="Rectangle-Copy-21" fill="#232323" x="165" y="41" width="42" height="4"></rect>
                    <rect id="Rectangle-Copy-22" fill="#232323" x="165" y="56" width="42" height="4"></rect>
                    <rect id="Rectangle-Copy-23" fill="#232323" x="10" y="39" width="132" height="8"></rect>
                    <rect id="Rectangle-Copy-24" fill="#232323" x="11" y="54" width="116" height="8"></rect>
                </g>
                <ellipse id="Oval-Copy-2" fill-opacity="0.5" fill="#D8D8D8" cx="58.5" cy="262.284366" rx="8.5" ry="9"></ellipse>
                <g id="Group" opacity="0.503688267" transform="translate(506.000000, 406.284366)" fill="#FFFFFF">
                    <path d="M8.6683872,0.533008952 L8.64639181,38.1865188 C8.64574711,39.2901787 7.75121269,40.1847097 6.64755277,40.1853502 L4.13064429,40.1868107 C3.02607498,40.1874517 2.130125,39.292541 2.12948401,38.1879717 C2.12948356,38.1871954 2.12948357,38.1864191 2.12948402,38.1856428 L2.15117784,1.04837589 L2.15117784,1.04837589 L8.6683872,0.533008952 Z" id="Rectangle-Copy-3" transform="translate(5.398351, 20.360491) rotate(-355.000000) translate(-5.398351, -20.360491) "></path>
                    <path d="M102.885222,1.08551118 L102.906473,37.4647536 C102.907118,38.5693229 102.012211,39.4652763 100.907642,39.4659215 C100.906865,39.465922 100.906089,39.465922 100.905313,39.4659215 L98.3884044,39.4644609 C97.2847444,39.4638205 96.39021,38.5692895 96.3895653,37.4656296 L96.3680519,0.637264108 L96.3680519,0.637264108 L102.885222,1.08551118 Z" id="Rectangle-Copy-4" transform="translate(99.637847, 20.052174) rotate(-365.000000) translate(-99.637847, -20.052174) "></path>
                    <path d="M52,-35 L54,-35 C55.1045695,-35 56,-34.1045695 56,-33 L56,54 C56,55.1045695 55.1045695,56 54,56 L52,56 C50.8954305,56 50,55.1045695 50,54 L50,-33 C50,-34.1045695 50.8954305,-35 52,-35 Z" id="Rectangle" transform="translate(53.000000, 10.500000) rotate(-270.000000) translate(-53.000000, -10.500000) "></path>
                    <path d="M52,-18 L54,-18 C55.1045695,-18 56,-17.1045695 56,-16 L56,71 C56,72.1045695 55.1045695,73 54,73 L52,73 C50.8954305,73 50,72.1045695 50,71 L50,-16 C50,-17.1045695 50.8954305,-18 52,-18 Z" id="Rectangle-Copy-2" transform="translate(53.000000, 27.500000) rotate(-270.000000) translate(-53.000000, -27.500000) "></path>
                </g>
                <path id="Path" d="M461.697698,330.284366 C466.944403,330.284366 471.197698,334.537661 471.197698,339.784366 C471.197698,345.031072 466.944403,349.284366 461.697698,349.284366 C456.961398,349.284366 453.03463,345.818351 452.315452,341.284378 L447.697698,341.284366 C446.869271,341.284366 446.197698,340.612794 446.197698,339.784366 C446.197698,339.00467 446.792586,338.363918 447.553238,338.291233 L447.697698,338.284366 L452.315452,338.284355 C453.03463,333.750382 456.961398,330.284366 461.697698,330.284366 Z M461.697698,333.284366 C458.107847,333.284366 455.197698,336.194516 455.197698,339.784366 C455.197698,343.374217 458.107847,346.284366 461.697698,346.284366 C465.287549,346.284366 468.197698,343.374217 468.197698,339.784366 C468.197698,336.194516 465.287549,333.284366 461.697698,333.284366 Z M435.697698,338.284366 C436.526125,338.284366 437.197698,338.955939 437.197698,339.784366 C437.197698,340.564063 436.60281,341.204815 435.842158,341.2775 L435.697698,341.284366 L429.697698,341.284366 C428.869271,341.284366 428.197698,340.612794 428.197698,339.784366 C428.197698,339.00467 428.792586,338.363918 429.553238,338.291233 L429.697698,338.284366 L435.697698,338.284366 Z M417.697698,338.284366 C418.526125,338.284366 419.197698,338.955939 419.197698,339.784366 C419.197698,340.564063 418.60281,341.204815 417.842158,341.2775 L417.697698,341.284366 L411.697698,341.284366 C410.869271,341.284366 410.197698,340.612794 410.197698,339.784366 C410.197698,339.00467 410.792586,338.363918 411.553238,338.291233 L411.697698,338.284366 L417.697698,338.284366 Z M399.697698,338.284366 C400.526125,338.284366 401.197698,338.955939 401.197698,339.784366 C401.197698,340.564063 400.60281,341.204815 399.842158,341.2775 L399.697698,341.284366 L393.697698,341.284366 C392.869271,341.284366 392.197698,340.612794 392.197698,339.784366 C392.197698,339.00467 392.792586,338.363918 393.553238,338.291233 L393.697698,338.284366 L399.697698,338.284366 Z M381.697698,338.284366 C382.526125,338.284366 383.197698,338.955939 383.197698,339.784366 C383.197698,340.564063 382.60281,341.204815 381.842158,341.2775 L381.697698,341.284366 L375.697698,341.284366 C374.869271,341.284366 374.197698,340.612794 374.197698,339.784366 C374.197698,339.00467 374.792586,338.363918 375.553238,338.291233 L375.697698,338.284366 L381.697698,338.284366 Z M364.100885,331.881179 C364.880581,331.881179 365.521334,332.476067 365.594018,333.236719 L365.600885,333.381179 L365.600885,339.381179 C365.600885,340.209606 364.929312,340.881179 364.100885,340.881179 C363.321189,340.881179 362.680436,340.286291 362.607752,339.525639 L362.600885,339.381179 L362.600885,333.381179 C362.600885,332.552752 363.272458,331.881179 364.100885,331.881179 Z M364.100885,313.881179 C364.880581,313.881179 365.521334,314.476067 365.594018,315.236719 L365.600885,315.381179 L365.600885,321.381179 C365.600885,322.209606 364.929312,322.881179 364.100885,322.881179 C363.321189,322.881179 362.680436,322.286291 362.607752,321.525639 L362.600885,321.381179 L362.600885,315.381179 C362.600885,314.552752 363.272458,313.881179 364.100885,313.881179 Z M364.100885,295.881179 C364.880581,295.881179 365.521334,296.476067 365.594018,297.236719 L365.600885,297.381179 L365.600885,303.381179 C365.600885,304.209606 364.929312,304.881179 364.100885,304.881179 C363.321189,304.881179 362.680436,304.286291 362.607752,303.525639 L362.600885,303.381179 L362.600885,297.381179 C362.600885,296.552752 363.272458,295.881179 364.100885,295.881179 Z M364.100885,277.881179 C364.880581,277.881179 365.521334,278.476067 365.594018,279.236719 L365.600885,279.381179 L365.600885,285.381179 C365.600885,286.209606 364.929312,286.881179 364.100885,286.881179 C363.321189,286.881179 362.680436,286.286291 362.607752,285.525639 L362.600885,285.381179 L362.600885,279.381179 C362.600885,278.552752 363.272458,277.881179 364.100885,277.881179 Z M364.100885,259.881179 C364.880581,259.881179 365.521334,260.476067 365.594018,261.236719 L365.600885,261.381179 L365.600885,267.381179 C365.600885,268.209606 364.929312,268.881179 364.100885,268.881179 C363.321189,268.881179 362.680436,268.286291 362.607752,267.525639 L362.600885,267.381179 L362.600885,261.381179 C362.600885,260.552752 363.272458,259.881179 364.100885,259.881179 Z M364.100885,241.881179 C364.880581,241.881179 365.521334,242.476067 365.594018,243.236719 L365.600885,243.381179 L365.600885,249.381179 C365.600885,250.209606 364.929312,250.881179 364.100885,250.881179 C363.321189,250.881179 362.680436,250.286291 362.607752,249.525639 L362.600885,249.381179 L362.600885,243.381179 C362.600885,242.552752 363.272458,241.881179 364.100885,241.881179 Z M364.100885,223.881179 C364.880581,223.881179 365.521334,224.476067 365.594018,225.236719 L365.600885,225.381179 L365.600885,231.381179 C365.600885,232.209606 364.929312,232.881179 364.100885,232.881179 C363.321189,232.881179 362.680436,232.286291 362.607752,231.525639 L362.600885,231.381179 L362.600885,225.381179 C362.600885,224.552752 363.272458,223.881179 364.100885,223.881179 Z M170.952378,211.531863 C176.199083,211.531863 180.452378,215.785158 180.452378,221.031863 C180.452378,226.278568 176.199083,230.531863 170.952378,230.531863 C165.705673,230.531863 161.452378,226.278568 161.452378,221.031863 C161.452378,215.785158 165.705673,211.531863 170.952378,211.531863 Z M170.952378,214.531863 C167.362527,214.531863 164.452378,217.442012 164.452378,221.031863 C164.452378,224.621714 167.362527,227.531863 170.952378,227.531863 C174.542229,227.531863 177.452378,224.621714 177.452378,221.031863 C177.452378,217.442012 174.542229,214.531863 170.952378,214.531863 Z M356.450202,219.531863 C357.278629,219.531863 357.950202,220.203436 357.950202,221.031863 C357.950202,221.811559 357.355313,222.452311 356.594662,222.524996 L356.450202,222.531863 L350.450202,222.531863 C349.621774,222.531863 348.950202,221.86029 348.950202,221.031863 C348.950202,220.252167 349.54509,219.611414 350.305742,219.538729 L350.450202,219.531863 L356.450202,219.531863 Z M338.450202,219.531863 C339.278629,219.531863 339.950202,220.203436 339.950202,221.031863 C339.950202,221.811559 339.355313,222.452311 338.594662,222.524996 L338.450202,222.531863 L332.450202,222.531863 C331.621774,222.531863 330.950202,221.86029 330.950202,221.031863 C330.950202,220.252167 331.54509,219.611414 332.305742,219.538729 L332.450202,219.531863 L338.450202,219.531863 Z M320.450202,219.531863 C321.278629,219.531863 321.950202,220.203436 321.950202,221.031863 C321.950202,221.811559 321.355313,222.452311 320.594662,222.524996 L320.450202,222.531863 L314.450202,222.531863 C313.621774,222.531863 312.950202,221.86029 312.950202,221.031863 C312.950202,220.252167 313.54509,219.611414 314.305742,219.538729 L314.450202,219.531863 L320.450202,219.531863 Z M302.450202,219.531863 C303.278629,219.531863 303.950202,220.203436 303.950202,221.031863 C303.950202,221.811559 303.355313,222.452311 302.594662,222.524996 L302.450202,222.531863 L296.450202,222.531863 C295.621774,222.531863 294.950202,221.86029 294.950202,221.031863 C294.950202,220.252167 295.54509,219.611414 296.305742,219.538729 L296.450202,219.531863 L302.450202,219.531863 Z M284.450202,219.531863 C285.278629,219.531863 285.950202,220.203436 285.950202,221.031863 C285.950202,221.811559 285.355313,222.452311 284.594662,222.524996 L284.450202,222.531863 L278.450202,222.531863 C277.621774,222.531863 276.950202,221.86029 276.950202,221.031863 C276.950202,220.252167 277.54509,219.611414 278.305742,219.538729 L278.450202,219.531863 L284.450202,219.531863 Z M266.450202,219.531863 C267.278629,219.531863 267.950202,220.203436 267.950202,221.031863 C267.950202,221.811559 267.355313,222.452311 266.594662,222.524996 L266.450202,222.531863 L260.450202,222.531863 C259.621774,222.531863 258.950202,221.86029 258.950202,221.031863 C258.950202,220.252167 259.54509,219.611414 260.305742,219.538729 L260.450202,219.531863 L266.450202,219.531863 Z M248.450202,219.531863 C249.278629,219.531863 249.950202,220.203436 249.950202,221.031863 C249.950202,221.811559 249.355313,222.452311 248.594662,222.524996 L248.450202,222.531863 L242.450202,222.531863 C241.621774,222.531863 240.950202,221.86029 240.950202,221.031863 C240.950202,220.252167 241.54509,219.611414 242.305742,219.538729 L242.450202,219.531863 L248.450202,219.531863 Z M230.450202,219.531863 C231.278629,219.531863 231.950202,220.203436 231.950202,221.031863 C231.950202,221.811559 231.355313,222.452311 230.594662,222.524996 L230.450202,222.531863 L224.450202,222.531863 C223.621774,222.531863 222.950202,221.86029 222.950202,221.031863 C222.950202,220.252167 223.54509,219.611414 224.305742,219.538729 L224.450202,219.531863 L230.450202,219.531863 Z M212.450202,219.531863 C213.278629,219.531863 213.950202,220.203436 213.950202,221.031863 C213.950202,221.811559 213.355313,222.452311 212.594662,222.524996 L212.450202,222.531863 L206.450202,222.531863 C205.621774,222.531863 204.950202,221.86029 204.950202,221.031863 C204.950202,220.252167 205.54509,219.611414 206.305742,219.538729 L206.450202,219.531863 L212.450202,219.531863 Z M194.450202,219.531863 C195.278629,219.531863 195.950202,220.203436 195.950202,221.031863 C195.950202,221.811559 195.355313,222.452311 194.594662,222.524996 L194.450202,222.531863 L188.450202,222.531863 C187.621774,222.531863 186.950202,221.86029 186.950202,221.031863 C186.950202,220.252167 187.54509,219.611414 188.305742,219.538729 L188.450202,219.531863 L194.450202,219.531863 Z" fill="#979797" fill-rule="nonzero"></path>
                <path id="Path-Copy" d="M170.952378,133.531863 C176.199083,133.531863 180.452378,137.785158 180.452378,143.031863 C180.452378,148.278568 176.199083,152.531863 170.952378,152.531863 C165.705673,152.531863 161.452378,148.278568 161.452378,143.031863 C161.452378,137.785158 165.705673,133.531863 170.952378,133.531863 Z M170.952378,136.531863 C167.362527,136.531863 164.452378,139.442012 164.452378,143.031863 C164.452378,146.621714 167.362527,149.531863 170.952378,149.531863 C174.542229,149.531863 177.452378,146.621714 177.452378,143.031863 C177.452378,139.442012 174.542229,136.531863 170.952378,136.531863 Z M280.945194,141.531863 C281.773621,141.531863 282.445194,142.203436 282.445194,143.031863 C282.445194,143.811559 281.850306,144.452311 281.089654,144.524996 L280.945194,144.531863 L274.945194,144.531863 C274.116767,144.531863 273.445194,143.86029 273.445194,143.031863 C273.445194,142.252167 274.040082,141.611414 274.800734,141.538729 L274.945194,141.531863 L280.945194,141.531863 Z M262.945194,141.531863 C263.773621,141.531863 264.445194,142.203436 264.445194,143.031863 C264.445194,143.811559 263.850306,144.452311 263.089654,144.524996 L262.945194,144.531863 L256.945194,144.531863 C256.116767,144.531863 255.445194,143.86029 255.445194,143.031863 C255.445194,142.252167 256.040082,141.611414 256.800734,141.538729 L256.945194,141.531863 L262.945194,141.531863 Z M244.945194,141.531863 C245.773621,141.531863 246.445194,142.203436 246.445194,143.031863 C246.445194,143.811559 245.850306,144.452311 245.089654,144.524996 L244.945194,144.531863 L238.945194,144.531863 C238.116767,144.531863 237.445194,143.86029 237.445194,143.031863 C237.445194,142.252167 238.040082,141.611414 238.800734,141.538729 L238.945194,141.531863 L244.945194,141.531863 Z M226.945194,141.531863 C227.773621,141.531863 228.445194,142.203436 228.445194,143.031863 C228.445194,143.811559 227.850306,144.452311 227.089654,144.524996 L226.945194,144.531863 L220.945194,144.531863 C220.116767,144.531863 219.445194,143.86029 219.445194,143.031863 C219.445194,142.252167 220.040082,141.611414 220.800734,141.538729 L220.945194,141.531863 L226.945194,141.531863 Z M208.945194,141.531863 C209.773621,141.531863 210.445194,142.203436 210.445194,143.031863 C210.445194,143.811559 209.850306,144.452311 209.089654,144.524996 L208.945194,144.531863 L202.945194,144.531863 C202.116767,144.531863 201.445194,143.86029 201.445194,143.031863 C201.445194,142.252167 202.040082,141.611414 202.800734,141.538729 L202.945194,141.531863 L208.945194,141.531863 Z M190.945194,141.531863 C191.773621,141.531863 192.445194,142.203436 192.445194,143.031863 C192.445194,143.811559 191.850306,144.452311 191.089654,144.524996 L190.945194,144.531863 L184.945194,144.531863 C184.116767,144.531863 183.445194,143.86029 183.445194,143.031863 C183.445194,142.252167 184.040082,141.611414 184.800734,141.538729 L184.945194,141.531863 L190.945194,141.531863 Z M284.100885,126.687553 C284.880581,126.687553 285.521334,127.282442 285.594018,128.043093 L285.600885,128.187553 L285.600885,134.187553 C285.600885,135.015981 284.929312,135.687553 284.100885,135.687553 C283.321189,135.687553 282.680436,135.092665 282.607752,134.332014 L282.600885,134.187553 L282.600885,128.187553 C282.600885,127.359126 283.272458,126.687553 284.100885,126.687553 Z M284.100885,108.687553 C284.880581,108.687553 285.521334,109.282442 285.594018,110.043093 L285.600885,110.187553 L285.600885,116.187553 C285.600885,117.015981 284.929312,117.687553 284.100885,117.687553 C283.321189,117.687553 282.680436,117.092665 282.607752,116.332014 L282.600885,116.187553 L282.600885,110.187553 C282.600885,109.359126 283.272458,108.687553 284.100885,108.687553 Z M284.100885,90.6875535 C284.880581,90.6875535 285.521334,91.2824416 285.594018,92.0430935 L285.600885,92.1875535 L285.600885,98.1875535 C285.600885,99.0159806 284.929312,99.6875535 284.100885,99.6875535 C283.321189,99.6875535 282.680436,99.0926654 282.607752,98.3320135 L282.600885,98.1875535 L282.600885,92.1875535 C282.600885,91.3591264 283.272458,90.6875535 284.100885,90.6875535 Z M284.100885,72.6875535 C284.880581,72.6875535 285.521334,73.2824416 285.594018,74.0430935 L285.600885,74.1875535 L285.600885,80.1875535 C285.600885,81.0159806 284.929312,81.6875535 284.100885,81.6875535 C283.321189,81.6875535 282.680436,81.0926654 282.607752,80.3320135 L282.600885,80.1875535 L282.600885,74.1875535 C282.600885,73.3591264 283.272458,72.6875535 284.100885,72.6875535 Z M531.697698,52.2843664 C536.944403,52.2843664 541.197698,56.5376613 541.197698,61.7843664 C541.197698,67.0310715 536.944403,71.2843664 531.697698,71.2843664 C526.961398,71.2843664 523.03463,67.8183509 522.315452,63.2843783 L517.697698,63.2843664 C516.869271,63.2843664 516.197698,62.6127935 516.197698,61.7843664 C516.197698,61.0046703 516.792586,60.3639177 517.553238,60.291233 L517.697698,60.2843664 L522.315452,60.2843546 C523.03463,55.7503819 526.961398,52.2843664 531.697698,52.2843664 Z M531.697698,55.2843664 C528.107847,55.2843664 525.197698,58.1945155 525.197698,61.7843664 C525.197698,65.3742173 528.107847,68.2843664 531.697698,68.2843664 C535.287549,68.2843664 538.197698,65.3742173 538.197698,61.7843664 C538.197698,58.1945155 535.287549,55.2843664 531.697698,55.2843664 Z M289.697698,60.2843664 C290.526125,60.2843664 291.197698,60.9559393 291.197698,61.7843664 C291.197698,62.5640625 290.60281,63.2048151 289.842158,63.2774998 L289.697698,63.2843664 L285.123,63.284 L285.112581,63.295028 C284.879187,63.508356 284.57813,63.6488873 284.245345,63.6806869 L284.100885,63.6875535 C283.321189,63.6875535 282.680436,63.0926654 282.607752,62.3320135 L282.600885,62.1875535 L282.600885,61.7843664 L284.100885,60.2843664 L289.697698,60.2843664 Z M505.697698,60.2843664 C506.526125,60.2843664 507.197698,60.9559393 507.197698,61.7843664 C507.197698,62.5640625 506.60281,63.2048151 505.842158,63.2774998 L505.697698,63.2843664 L499.697698,63.2843664 C498.869271,63.2843664 498.197698,62.6127935 498.197698,61.7843664 C498.197698,61.0046703 498.792586,60.3639177 499.553238,60.291233 L499.697698,60.2843664 L505.697698,60.2843664 Z M487.697698,60.2843664 C488.526125,60.2843664 489.197698,60.9559393 489.197698,61.7843664 C489.197698,62.5640625 488.60281,63.2048151 487.842158,63.2774998 L487.697698,63.2843664 L481.697698,63.2843664 C480.869271,63.2843664 480.197698,62.6127935 480.197698,61.7843664 C480.197698,61.0046703 480.792586,60.3639177 481.553238,60.291233 L481.697698,60.2843664 L487.697698,60.2843664 Z M469.697698,60.2843664 C470.526125,60.2843664 471.197698,60.9559393 471.197698,61.7843664 C471.197698,62.5640625 470.60281,63.2048151 469.842158,63.2774998 L469.697698,63.2843664 L463.697698,63.2843664 C462.869271,63.2843664 462.197698,62.6127935 462.197698,61.7843664 C462.197698,61.0046703 462.792586,60.3639177 463.553238,60.291233 L463.697698,60.2843664 L469.697698,60.2843664 Z M451.697698,60.2843664 C452.526125,60.2843664 453.197698,60.9559393 453.197698,61.7843664 C453.197698,62.5640625 452.60281,63.2048151 451.842158,63.2774998 L451.697698,63.2843664 L445.697698,63.2843664 C444.869271,63.2843664 444.197698,62.6127935 444.197698,61.7843664 C444.197698,61.0046703 444.792586,60.3639177 445.553238,60.291233 L445.697698,60.2843664 L451.697698,60.2843664 Z M433.697698,60.2843664 C434.526125,60.2843664 435.197698,60.9559393 435.197698,61.7843664 C435.197698,62.5640625 434.60281,63.2048151 433.842158,63.2774998 L433.697698,63.2843664 L427.697698,63.2843664 C426.869271,63.2843664 426.197698,62.6127935 426.197698,61.7843664 C426.197698,61.0046703 426.792586,60.3639177 427.553238,60.291233 L427.697698,60.2843664 L433.697698,60.2843664 Z M415.697698,60.2843664 C416.526125,60.2843664 417.197698,60.9559393 417.197698,61.7843664 C417.197698,62.5640625 416.60281,63.2048151 415.842158,63.2774998 L415.697698,63.2843664 L409.697698,63.2843664 C408.869271,63.2843664 408.197698,62.6127935 408.197698,61.7843664 C408.197698,61.0046703 408.792586,60.3639177 409.553238,60.291233 L409.697698,60.2843664 L415.697698,60.2843664 Z M397.697698,60.2843664 C398.526125,60.2843664 399.197698,60.9559393 399.197698,61.7843664 C399.197698,62.5640625 398.60281,63.2048151 397.842158,63.2774998 L397.697698,63.2843664 L391.697698,63.2843664 C390.869271,63.2843664 390.197698,62.6127935 390.197698,61.7843664 C390.197698,61.0046703 390.792586,60.3639177 391.553238,60.291233 L391.697698,60.2843664 L397.697698,60.2843664 Z M379.697698,60.2843664 C380.526125,60.2843664 381.197698,60.9559393 381.197698,61.7843664 C381.197698,62.5640625 380.60281,63.2048151 379.842158,63.2774998 L379.697698,63.2843664 L373.697698,63.2843664 C372.869271,63.2843664 372.197698,62.6127935 372.197698,61.7843664 C372.197698,61.0046703 372.792586,60.3639177 373.553238,60.291233 L373.697698,60.2843664 L379.697698,60.2843664 Z M361.697698,60.2843664 C362.526125,60.2843664 363.197698,60.9559393 363.197698,61.7843664 C363.197698,62.5640625 362.60281,63.2048151 361.842158,63.2774998 L361.697698,63.2843664 L355.697698,63.2843664 C354.869271,63.2843664 354.197698,62.6127935 354.197698,61.7843664 C354.197698,61.0046703 354.792586,60.3639177 355.553238,60.291233 L355.697698,60.2843664 L361.697698,60.2843664 Z M343.697698,60.2843664 C344.526125,60.2843664 345.197698,60.9559393 345.197698,61.7843664 C345.197698,62.5640625 344.60281,63.2048151 343.842158,63.2774998 L343.697698,63.2843664 L337.697698,63.2843664 C336.869271,63.2843664 336.197698,62.6127935 336.197698,61.7843664 C336.197698,61.0046703 336.792586,60.3639177 337.553238,60.291233 L337.697698,60.2843664 L343.697698,60.2843664 Z M325.697698,60.2843664 C326.526125,60.2843664 327.197698,60.9559393 327.197698,61.7843664 C327.197698,62.5640625 326.60281,63.2048151 325.842158,63.2774998 L325.697698,63.2843664 L319.697698,63.2843664 C318.869271,63.2843664 318.197698,62.6127935 318.197698,61.7843664 C318.197698,61.0046703 318.792586,60.3639177 319.553238,60.291233 L319.697698,60.2843664 L325.697698,60.2843664 Z M307.697698,60.2843664 C308.526125,60.2843664 309.197698,60.9559393 309.197698,61.7843664 C309.197698,62.5640625 308.60281,63.2048151 307.842158,63.2774998 L307.697698,63.2843664 L301.697698,63.2843664 C300.869271,63.2843664 300.197698,62.6127935 300.197698,61.7843664 C300.197698,61.0046703 300.792586,60.3639177 301.553238,60.291233 L301.697698,60.2843664 L307.697698,60.2843664 Z" fill="#979797" fill-rule="nonzero"></path>
            </g>
        </g>
    </g>
</svg>