<?xml version="1.0" encoding="utf-8"?>
<!-- Generator: Adobe Illustrator 18.1.1, SVG Export Plug-In . SVG Version: 6.00 Build 0)  -->
<!DOCTYPE svg PUBLIC "-//W3C//DTD SVG 1.1//EN" "http://www.w3.org/Graphics/SVG/1.1/DTD/svg11.dtd">
<svg version="1.1" id="Lager_1" xmlns="http://www.w3.org/2000/svg" xmlns:xlink="http://www.w3.org/1999/xlink" x="0px" y="0px"
	 viewBox="0 0 59.7 13.2" enable-background="new 0 0 59.7 13.2" xml:space="preserve">
<g>
	<path fill="#FFFFFF" d="M0,2V0h5.6v2H3.8v11.2H1.8V2H0z"/>
	<path fill="#FFFFFF" d="M10.7,13.2l-1-5.6H9.2v5.6H7.2V0h1.9c2.3,0,3.3,1.3,3.3,3.8c0,1.3-0.3,2.5-1.1,3l1.2,6.4H10.7z M9.2,5.8
		c0.3,0,0.6,0,0.9-0.3c0.3-0.3,0.5-0.7,0.5-1.7c0-0.9-0.2-1.4-0.5-1.7C9.8,1.9,9.4,1.9,9.2,1.9V5.8z"/>
	<path fill="#FFFFFF" d="M14.1,13.2l2-13.2h2.4l2,13.2h-1.9l-0.4-2.7h-1.9l-0.4,2.7H14.1z M17.3,4.3l-0.1-0.3h-0.1l-0.1,0.3
		l-0.6,4.2h1.3L17.3,4.3z"/>
	<path fill="#FFFFFF" d="M26.8,2h-2.7v3.5h1.8v2h-1.8v5.7h-1.9V0h4.6V2z"/>
	<path fill="#FFFFFF" d="M28.5,0h1.9v13.2h-1.9V0z"/>
	<path fill="#FFFFFF" d="M34.7,0v4.6h0.1l0.1-0.2L36.5,0h1.9l-1.8,4.3l2,8.8h-1.9l-1.3-5.7l-0.1-0.3h-0.1l-0.1,0.3l-0.4,1.1v4.7
		h-1.9V0H34.7z"/>
	<path fill="#FFFFFF" d="M40.4,0h1.9v11.4h2.6v1.8h-4.5V0z"/>
	<path fill="#FFFFFF" d="M46.2,13.2l2-13.2h2.4l2,13.2h-1.9l-0.4-2.7h-1.9l-0.4,2.7H46.2z M49.5,4.3l-0.1-0.3h-0.1l-0.1,0.3
		l-0.6,4.2H50L49.5,4.3z"/>
	<path fill="#FFFFFF" d="M54.3,13.2V0H56c1.1,0,2,0.2,2.6,0.8c0.6,0.6,0.9,1.4,0.9,2.7c0,0.6-0.1,1.1-0.2,1.5
		c-0.2,0.4-0.5,0.8-0.9,1.2c0.5,0.3,0.8,0.8,1.1,1.6c0.1,0.4,0.2,0.9,0.2,1.6c0,1-0.2,1.9-0.6,2.5c-0.4,0.7-1.2,1.1-2.4,1.2H54.3z
		 M56.3,5.4c0.2,0,0.5,0,0.9-0.2c0.3-0.2,0.6-0.6,0.6-1.6s-0.3-1.3-0.6-1.6c-0.3-0.2-0.7-0.2-0.9-0.2V5.4z M56.3,11.3
		c0.2,0,0.5,0,0.9-0.2c0.3-0.2,0.6-0.8,0.6-1.8c0-1.1-0.3-1.6-0.6-1.8c-0.3-0.2-0.7-0.2-0.9-0.2V11.3z"/>
</g>
</svg>
