<?xml version="1.0" encoding="UTF-8"?>
<svg width="967px" height="626px" viewBox="0 0 967 626" version="1.1" xmlns="http://www.w3.org/2000/svg" xmlns:xlink="http://www.w3.org/1999/xlink">
    <title>Group 7</title>
    <defs>
        <linearGradient x1="50%" y1="0%" x2="50%" y2="100%" id="linearGradient-1">
            <stop stop-color="#8A5D5D" offset="0%"></stop>
            <stop stop-color="#613D31" offset="100%"></stop>
        </linearGradient>
        <linearGradient x1="50%" y1="0%" x2="50%" y2="100%" id="linearGradient-2">
            <stop stop-color="#8A5D5D" offset="0%"></stop>
            <stop stop-color="#613D31" offset="100%"></stop>
        </linearGradient>
        <radialGradient cx="60.99029%" cy="129.471173%" fx="60.99029%" fy="129.471173%" r="132.751169%" gradientTransform="translate(0.609903,1.294712),scale(0.355783,1.000000),rotate(-172.176163),translate(-0.609903,-1.294712)" id="radialGradient-3">
            <stop stop-color="#346DED" offset="0%"></stop>
            <stop stop-color="#6DB5FA" offset="100%"></stop>
        </radialGradient>
    </defs>
    <g id="Page-purple-Copy" stroke="none" stroke-width="1" fill="none" fill-rule="evenodd">
        <g id="Desktop-HD" transform="translate(-277.000000, -40.000000)">
            <g id="Group-8" transform="translate(277.000000, 39.715634)">
                <g id="Group-7" transform="translate(0.000000, 0.284366)">
                    <g id="Group-10" transform="translate(0.000000, 0.926829)">
                        <polygon id="Rectangle" fill="#D8D8D8" points="272 118.073171 951 118.073171 679.068023 589.073171 0.0680232117 589.073171"></polygon>
                        <rect id="Rectangle" fill-opacity="0.8" fill="url(#linearGradient-1)" opacity="0.8" x="0" y="589.073171" width="679" height="35"></rect>
                        <polygon id="Rectangle-Copy-25" fill="url(#linearGradient-2)" opacity="0.8" transform="translate(814.705726, 370.297835) rotate(-60.000000) translate(-814.705726, -370.297835) " points="557.475049 361.89913 1102.65607 360.960533 1072.79169 378.202739 526.755385 379.635136"></polygon>
                        <polygon id="Rectangle-Copy-38" fill="#C1DA6E" points="746 221.073171 890 221.073171 825.91412 332.073171 681.91412 332.073171"></polygon>
                        <polygon id="Rectangle-Copy-39" fill="#C1DA6E" points="270 353.073171 382 353.073171 317.91412 464.073171 205.91412 464.073171"></polygon>
                        <polygon id="Rectangle-Copy-40" fill="#FFFFFF" points="381 118.073171 409 118.073171 136.181272 589.073171 108.181272 589.073171"></polygon>
                        <path d="M533.5,201.573171 C538.121248,203.423028 539.75438,206.623715 538.399395,211.175234 C537.044411,215.726752 532.139628,218.192731 523.685045,218.573171 L350.685045,218.573171 L360.5,201.573171 L533.5,201.573171 Z" id="Rectangle-Copy-41" fill="#FFFFFF"></path>
                        <path d="M320.5,462.573171 C327.192602,464.286906 328.531851,468.408322 324.517745,474.937418 C320.503639,481.466514 315.226073,484.345098 308.685045,483.573171 L196.685045,483.573171 L208.5,462.573171 L320.5,462.573171 Z" id="Rectangle-Copy-42" fill="#FFFFFF"></path>
                        <polygon id="Rectangle-Copy-45" fill="#FFFFFF" transform="translate(239.367690, 269.195593) rotate(-180.000000) translate(-239.367690, -269.195593) " points="299.775168 258.695593 287.960213 279.695593 178.960213 279.695593 190.775168 258.695593"></polygon>
                        <polygon id="Rectangle-Copy-43" fill="#FFFFFF" points="778 118.073171 806 118.073171 666.126534 359.073171 638.126534 359.073171"></polygon>
                        <polygon id="Rectangle-Copy-44" fill="#FFFFFF" points="827 332.073171 810.834192 360.073171 240.834192 360.073171 257 332.073171"></polygon>
                        <path d="M257.547053,589.073171 C309.178376,491.007013 369.489267,433.004468 438.479726,415.065537 C551.194204,388.15714 590.875277,440.82133 638.126534,445.354435 C685.377791,449.887541 735.489669,450.280384 756.087031,450.280384" id="Path-2-Copy-2" stroke="#979797" stroke-width="3" stroke-dasharray="5"></path>
                        <path d="M317.796089,589.073171 L678.593612,589.073171 C693.005605,564.570111 709.435331,539.947429 710.55305,527.760225 C713.741888,492.990269 689.597692,485.341885 661.568959,478.698656 C634.38697,472.256118 617.559955,486.159031 550.964199,486.425393 C495.675367,486.646531 470.599663,439.641821 445.271716,451.009576 C427.281459,459.738389 419.705533,474.144596 413.071925,489.550841 L412.151468,491.706569 L409.4063,498.223398 L408.477584,500.40281 C401.146024,517.474098 392.308575,534.440587 369.596354,545.194423 C328.572913,575.07434 317.796089,565.279475 317.796089,589.073171 Z" id="Path-3-Copy-2" fill="url(#radialGradient-3)"></path>
                        <path d="M317.796089,589.073171 L306.515204,589.073171 C317.013039,558.820532 333.17886,561.211108 369.965917,528.537647 C398.417422,503.267641 413.388669,470.906821 424.520905,467.356876 C424.695063,467.301759 415.494383,483.924797 413.071925,489.550841 L412.151468,491.706569 L409.4063,498.223398 L408.477584,500.40281 C401.146024,517.474098 392.308575,534.440587 369.596354,545.194423 C328.572913,575.07434 317.796089,565.279475 317.796089,589.073171 Z" id="Path-3-Copy-2" fill="#DFCA49"></path>
                        <polygon id="Rectangle-Copy-26" fill="#B6B6B6" points="828 125.788804 917 125.788804 867 211.788804 778 211.788804"></polygon>
                        <polygon id="Rectangle-Copy-27" fill="#B6B6B6" points="184 286.788804 273 286.788804 246 332.788804 157 332.788804"></polygon>
                        <polygon id="Rectangle-Copy-27" fill="#B6B6B6" points="764 366.788804 793 366.788804 766 412.788804 737 412.788804"></polygon>
                        <polygon id="Rectangle-Copy-27" fill="#B6B6B6" points="724 366.788804 753 366.788804 726 412.788804 697 412.788804"></polygon>
                        <polygon id="Rectangle-Copy-27" fill="#B6B6B6" points="684 366.788804 713 366.788804 686 412.788804 657 412.788804"></polygon>
                        <polygon id="Rectangle-Copy-27" fill="#B6B6B6" points="644 366.788804 673 366.788804 646 412.788804 617 412.788804"></polygon>
                        <polygon id="Rectangle-Copy-27" fill="#B6B6B6" points="116 404.788804 205 404.788804 177 450.788804 88 450.788804"></polygon>
                        <path d="M452.44965,196.073171 L508.55035,196.073171 C515.4542,196.073171 521.153913,201.469662 521.530949,208.363209 L525.250146,276.363209 C525.642247,283.532196 520.148496,289.661669 512.979509,290.05377 C512.743076,290.066701 512.506334,290.073171 512.269547,290.073171 L448.730453,290.073171 C441.550751,290.073171 435.730453,284.252872 435.730453,277.073171 C435.730453,276.836384 435.736922,276.599642 435.749854,276.363209 L439.469051,208.363209 C439.846087,201.469662 445.5458,196.073171 452.44965,196.073171 Z" id="Rectangle" fill="#9B26B6"></path>
                        <rect id="Rectangle-Copy-13" fill="#F1B6FF" x="82" y="61.0731707" width="84" height="134" rx="15"></rect>
                        <rect id="Rectangle-Copy-14" fill="#691B7B" x="85" y="69.0731707" width="78" height="110"></rect>
                        <path d="M455.282437,199.073171 L505.717563,199.073171 C512.672514,199.073171 518.39551,204.54715 518.704709,211.495225 L520.395762,249.495225 C520.714953,256.667828 515.159165,262.741127 507.986562,263.060317 C507.794032,263.068885 507.601336,263.073171 507.408616,263.073171 L453.591384,263.073171 C446.411682,263.073171 440.591384,257.252872 440.591384,250.073171 C440.591384,249.880451 440.59567,249.687754 440.604238,249.495225 L442.295291,211.495225 C442.60449,204.54715 448.327486,199.073171 455.282437,199.073171 Z" id="Rectangle-Copy" fill="#691B7B"></path>
                        <circle id="Oval" fill="#FFFFFF" opacity="0.703688" cx="513" cy="277.073171" r="8"></circle>
                        <circle id="Oval-Copy" fill="#FFFFFF" opacity="0.703688" cx="448" cy="277.073171" r="8"></circle>
                        <path d="M512.081048,17.185482 L658.319021,17.2332947 C659.975111,17.2357924 661.317502,18.5781855 661.319996,20.2342753 L661.33678,71.8891132 C661.339274,73.5459667 659.996564,74.8895488 658.33971,74.8900872 C658.339058,74.8900874 658.338406,74.8900874 658.337755,74.8881322 L512.099782,74.8403195 C510.443692,74.8378218 509.101302,73.4954287 509.098807,71.8393388 L509.082023,20.184501 C509.07953,18.5276475 510.422239,17.1840653 512.079093,17.183527 C512.079745,17.1835268 512.080397,17.1835268 512.081048,17.185482 Z" id="Rectangle" fill="#E174FA" transform="translate(585.209402, 46.036807) rotate(3.000000) translate(-585.209402, -46.036807) "></path>
                        <line x1="621.316527" y1="19.9559724" x2="621.334851" y2="76.3482953" id="Line" stroke="#691B7B" stroke-width="2" stroke-dasharray="6" transform="translate(621.325689, 48.152134) rotate(3.000000) translate(-621.325689, -48.152134) "></line>
                        <polygon id="Rectangle" fill="#9B26B6" transform="translate(797.418803, 250.000443) rotate(-45.000000) translate(-797.418803, -250.000443) " points="783.632007 223.485725 819.690881 227.728366 823.933522 263.78724 770.904085 276.515162"></polygon>
                        <circle id="Oval" fill="#9B26B6" cx="797.418803" cy="231.000443" r="30"></circle>
                        <polygon id="Rectangle" fill="#232323" transform="translate(542.660562, 30.728856) rotate(3.000000) translate(-542.660562, -30.728856) " points="516.93801 27.5641594 568.381062 27.5809788 568.383113 33.8935522 516.940062 33.8767329"></polygon>
                        <polygon id="Rectangle-Copy-7" fill="#232323" transform="translate(642.139265, 34.499948) rotate(3.000000) translate(-642.139265, -34.499948) " points="627.291333 32.8117407 656.986102 32.8214494 656.987196 36.1881553 627.292427 36.1784465"></polygon>
                        <polygon id="Rectangle-Copy-9" fill="#232323" transform="translate(641.570166, 45.426933) rotate(3.000000) translate(-641.570166, -45.426933) " points="626.722234 43.7387254 656.417003 43.7484342 656.418097 47.11514 626.723328 47.1054313"></polygon>
                        <polygon id="Rectangle-Copy-11" fill="#232323" transform="translate(641.001067, 56.353917) rotate(3.000000) translate(-641.001067, -56.353917) " points="626.153135 54.6657101 655.847905 54.6754189 655.848999 58.0421247 626.154229 58.032416"></polygon>
                        <polygon id="Rectangle-Copy-8" fill="#232323" transform="translate(641.854715, 39.963440) rotate(3.000000) translate(-641.854715, -39.963440) " points="627.006783 38.2752331 656.701553 38.2849418 656.702647 41.6516476 627.007877 41.6419389"></polygon>
                        <polygon id="Rectangle-Copy-10" fill="#232323" transform="translate(641.285616, 50.890425) rotate(3.000000) translate(-641.285616, -50.890425) " points="626.437685 49.2022178 656.132454 49.2119265 656.133548 52.5786323 626.438779 52.5689236"></polygon>
                        <polygon id="Rectangle-Copy-12" fill="#232323" transform="translate(640.716517, 61.817410) rotate(3.000000) translate(-640.716517, -61.817410) " points="625.868586 60.1292025 655.563355 60.1389112 655.564449 63.5056171 625.86968 63.4959083"></polygon>
                        <polygon id="Rectangle-Copy-5" fill="#232323" transform="translate(562.964199, 46.970807) rotate(3.000000) translate(-562.964199, -46.970807) " points="516.120721 43.799205 609.805627 43.8298354 609.807678 50.1424089 516.122772 50.1117785"></polygon>
                        <polygon id="Rectangle-Copy-6" fill="#232323" transform="translate(557.196406, 57.202199) rotate(3.000000) translate(-557.196406, -57.202199) " points="515.580994 54.0323196 598.809767 54.0595314 598.811818 60.3720786 515.583045 60.3448669"></polygon>
                        <rect id="Rectangle-Copy-15" fill="#F1B6FF" x="496" y="0.0731707317" width="152.726496" height="57.4545455" rx="3"></rect>
                        <line x1="608.939103" y1="1.00037562" x2="608.939103" y2="56.6005113" id="Line-Copy" stroke="#691B7B" stroke-width="2" stroke-dasharray="6"></line>
                        <rect id="Rectangle-Copy-16" fill="#232323" x="503.136752" y="13.0004435" width="51.3846154" height="5.74545455"></rect>
                        <rect id="Rectangle-Copy-17" fill="#232323" x="613.75641" y="13.0004435" width="29.974359" height="2.87272727"></rect>
                        <rect id="Rectangle-Copy-18" fill="#232323" x="613.75641" y="23.7731707" width="29.974359" height="2.87272727"></rect>
                        <rect id="Rectangle-Copy-19" fill="#232323" x="613.75641" y="34.545898" width="29.974359" height="2.87272727"></rect>
                        <rect id="Rectangle-Copy-20" fill="#232323" x="613.75641" y="18.745898" width="29.974359" height="2.87272727"></rect>
                        <rect id="Rectangle-Copy-21" fill="#232323" x="613.75641" y="29.5186253" width="29.974359" height="2.87272727"></rect>
                        <rect id="Rectangle-Copy-22" fill="#232323" x="613.75641" y="40.2913525" width="29.974359" height="2.87272727"></rect>
                        <rect id="Rectangle-Copy-23" fill="#232323" x="503.136752" y="28.0822616" width="94.2051282" height="5.74545455"></rect>
                        <rect id="Rectangle-Copy-24" fill="#232323" x="503.850427" y="38.8549889" width="82.7863248" height="5.74545455"></rect>
                        <ellipse id="Oval-Copy-2" fill="#9B26B6" cx="124" cy="187.573171" rx="6" ry="6.5"></ellipse>
                        <path d="M450.203529,290.447149 L450.165877,316.500948 C450.164284,317.603278 449.271052,318.496488 448.168722,318.498055 L447.514141,318.498986 C446.409573,318.500557 445.51287,317.6064 445.5113,316.501832 C445.511297,316.499921 445.511297,316.498009 445.5113,316.496098 L445.548412,290.815647 L445.548412,290.815647 L450.203529,290.447149 Z" id="Rectangle-Copy-3" fill="#050505" transform="translate(447.855965, 304.474494) rotate(-355.000000) translate(-447.855965, -304.474494) "></path>
                        <path d="M516.299865,290.691831 L518.52753,315.737229 C518.62539,316.837455 517.812811,317.808695 516.712585,317.906555 C516.710681,317.906724 516.708777,317.906891 516.706873,317.907055 L516.054702,317.963178 C514.95643,318.057691 513.988749,317.24573 513.891088,316.147734 L511.634553,290.777747 L511.634553,290.777747 L516.299865,290.691831 Z" id="Rectangle-Copy-4" fill="#050505"></path>
                        <path d="M481.735192,265 L481.979094,265 C483.083664,265 483.979094,265.895431 483.979094,267 L483.979094,328 C483.979094,329.104569 483.083664,330 481.979094,330 L481.735192,330 C480.630622,330 479.735192,329.104569 479.735192,328 L479.735192,267 C479.735192,265.895431 480.630622,265 481.735192,265 Z" id="Rectangle" fill="#050505" transform="translate(481.857143, 297.500000) rotate(-270.000000) translate(-481.857143, -297.500000) "></path>
                        <path d="M481.735192,277.02439 L481.979094,277.02439 C483.083664,277.02439 483.979094,277.919821 483.979094,279.02439 L483.979094,340.02439 C483.979094,341.12896 483.083664,342.02439 481.979094,342.02439 L481.735192,342.02439 C480.630622,342.02439 479.735192,341.12896 479.735192,340.02439 L479.735192,279.02439 C479.735192,277.919821 480.630622,277.02439 481.735192,277.02439 Z" id="Rectangle-Copy-2" fill="#050505" transform="translate(481.857143, 309.524390) rotate(-270.000000) translate(-481.857143, -309.524390) "></path>
                        <path id="Path" d="M412,271.073171 C415.865993,271.073171 419,274.207177 419,278.073171 C419,281.939164 415.865993,285.073171 412,285.073171 C408.473606,285.073171 405.556248,282.46558 405.070921,279.073396 L400,279.073171 C399.447715,279.073171 399,278.625455 399,278.073171 C399,277.560335 399.38604,277.137664 399.883379,277.079898 L400,277.073171 L405.07089,277.073163 C405.556123,273.680872 408.473531,271.073171 412,271.073171 Z M412,273.073171 C409.238576,273.073171 407,275.311747 407,278.073171 C407,280.834594 409.238576,283.073171 412,283.073171 C414.761424,283.073171 417,280.834594 417,278.073171 C417,275.311747 414.761424,273.073171 412,273.073171 Z M388,277.073171 C388.552285,277.073171 389,277.520886 389,278.073171 C389,278.586007 388.61396,279.008678 388.116621,279.066443 L388,279.073171 L382,279.073171 C381.447715,279.073171 381,278.625455 381,278.073171 C381,277.560335 381.38604,277.137664 381.883379,277.079898 L382,277.073171 L388,277.073171 Z M370,277.073171 C370.552285,277.073171 371,277.520886 371,278.073171 C371,278.586007 370.61396,279.008678 370.116621,279.066443 L370,279.073171 L364,279.073171 C363.447715,279.073171 363,278.625455 363,278.073171 C363,277.560335 363.38604,277.137664 363.883379,277.079898 L364,277.073171 L370,277.073171 Z M352,277.073171 C352.552285,277.073171 353,277.520886 353,278.073171 C353,278.586007 352.61396,279.008678 352.116621,279.066443 L352,279.073171 L346,279.073171 C345.447715,279.073171 345,278.625455 345,278.073171 C345,277.560335 345.38604,277.137664 345.883379,277.079898 L346,277.073171 L352,277.073171 Z M342.178972,262.894199 C342.691808,262.894199 343.114479,263.280239 343.172244,263.777577 L343.178972,263.894199 L343.178972,269.894199 C343.178972,270.446483 342.731257,270.894199 342.178972,270.894199 C341.666136,270.894199 341.243465,270.508158 341.1857,270.01082 L341.178972,269.894199 L341.178972,263.894199 C341.178972,263.341914 341.626687,262.894199 342.178972,262.894199 Z M342.178972,244.894199 C342.691808,244.894199 343.114479,245.280239 343.172244,245.777577 L343.178972,245.894199 L343.178972,251.894199 C343.178972,252.446483 342.731257,252.894199 342.178972,252.894199 C341.666136,252.894199 341.243465,252.508158 341.1857,252.01082 L341.178972,251.894199 L341.178972,245.894199 C341.178972,245.341914 341.626687,244.894199 342.178972,244.894199 Z M342.178972,226.894199 C342.691808,226.894199 343.114479,227.280239 343.172244,227.777577 L343.178972,227.894199 L343.178972,233.894199 C343.178972,234.446483 342.731257,234.894199 342.178972,234.894199 C341.666136,234.894199 341.243465,234.508158 341.1857,234.01082 L341.178972,233.894199 L341.178972,227.894199 C341.178972,227.341914 341.626687,226.894199 342.178972,226.894199 Z M342.178972,208.894199 C342.691808,208.894199 343.114479,209.280239 343.172244,209.777577 L343.178972,209.894199 L343.178972,215.894199 C343.178972,216.446483 342.731257,216.894199 342.178972,216.894199 C341.666136,216.894199 341.243465,216.508158 341.1857,216.01082 L341.178972,215.894199 L341.178972,209.894199 C341.178972,209.341914 341.626687,208.894199 342.178972,208.894199 Z M342.178972,190.894199 C342.691808,190.894199 343.114479,191.280239 343.172244,191.777577 L343.178972,191.894199 L343.178972,197.894199 C343.178972,198.446483 342.731257,198.894199 342.178972,198.894199 C341.666136,198.894199 341.243465,198.508158 341.1857,198.01082 L341.178972,197.894199 L341.178972,191.894199 C341.178972,191.341914 341.626687,190.894199 342.178972,190.894199 Z M342.178972,172.894199 C342.691808,172.894199 343.114479,173.280239 343.172244,173.777577 L343.178972,173.894199 L343.178972,179.894199 C343.178972,180.446483 342.731257,180.894199 342.178972,180.894199 C341.666136,180.894199 341.243465,180.508158 341.1857,180.01082 L341.178972,179.894199 L341.178972,173.894199 C341.178972,173.341914 341.626687,172.894199 342.178972,172.894199 Z M204,151.073171 C207.865993,151.073171 211,154.207177 211,158.073171 C211,161.939164 207.865993,165.073171 204,165.073171 C200.134007,165.073171 197,161.939164 197,158.073171 C197,154.207177 200.134007,151.073171 204,151.073171 Z M204,153.073171 C201.238576,153.073171 199,155.311747 199,158.073171 C199,160.834594 201.238576,163.073171 204,163.073171 C206.761424,163.073171 209,160.834594 209,158.073171 C209,155.311747 206.761424,153.073171 204,153.073171 Z M342.178972,157.073171 L343.178972,158.073171 L343.178972,161.894199 C343.178972,162.446483 342.731257,162.894199 342.178972,162.894199 C341.666136,162.894199 341.243465,162.508158 341.1857,162.01082 L341.178972,161.894199 L341.178,159.073 L340,159.073171 C339.487164,159.073171 339.064493,158.687131 339.006728,158.189792 L339,158.073171 C339,157.560335 339.38604,157.137664 339.883379,157.079898 L340,157.073171 L342.178972,157.073171 Z M328,157.073171 C328.552285,157.073171 329,157.520886 329,158.073171 C329,158.586007 328.61396,159.008678 328.116621,159.066443 L328,159.073171 L322,159.073171 C321.447715,159.073171 321,158.625455 321,158.073171 C321,157.560335 321.38604,157.137664 321.883379,157.079898 L322,157.073171 L328,157.073171 Z M310,157.073171 C310.552285,157.073171 311,157.520886 311,158.073171 C311,158.586007 310.61396,159.008678 310.116621,159.066443 L310,159.073171 L304,159.073171 C303.447715,159.073171 303,158.625455 303,158.073171 C303,157.560335 303.38604,157.137664 303.883379,157.079898 L304,157.073171 L310,157.073171 Z M292,157.073171 C292.552285,157.073171 293,157.520886 293,158.073171 C293,158.586007 292.61396,159.008678 292.116621,159.066443 L292,159.073171 L286,159.073171 C285.447715,159.073171 285,158.625455 285,158.073171 C285,157.560335 285.38604,157.137664 285.883379,157.079898 L286,157.073171 L292,157.073171 Z M274,157.073171 C274.552285,157.073171 275,157.520886 275,158.073171 C275,158.586007 274.61396,159.008678 274.116621,159.066443 L274,159.073171 L268,159.073171 C267.447715,159.073171 267,158.625455 267,158.073171 C267,157.560335 267.38604,157.137664 267.883379,157.079898 L268,157.073171 L274,157.073171 Z M256,157.073171 C256.552285,157.073171 257,157.520886 257,158.073171 C257,158.586007 256.61396,159.008678 256.116621,159.066443 L256,159.073171 L250,159.073171 C249.447715,159.073171 249,158.625455 249,158.073171 C249,157.560335 249.38604,157.137664 249.883379,157.079898 L250,157.073171 L256,157.073171 Z M238,157.073171 C238.552285,157.073171 239,157.520886 239,158.073171 C239,158.586007 238.61396,159.008678 238.116621,159.066443 L238,159.073171 L232,159.073171 C231.447715,159.073171 231,158.625455 231,158.073171 C231,157.560335 231.38604,157.137664 231.883379,157.079898 L232,157.073171 L238,157.073171 Z M220,157.073171 C220.552285,157.073171 221,157.520886 221,158.073171 C221,158.586007 220.61396,159.008678 220.116621,159.066443 L220,159.073171 L214,159.073171 C213.447715,159.073171 213,158.625455 213,158.073171 C213,157.560335 213.38604,157.137664 213.883379,157.079898 L214,157.073171 L220,157.073171 Z" fill="#D107FF" fill-rule="nonzero"></path>
                        <path id="Path-Copy-2" d="M250.304772,441.789452 C254.170408,441.736859 257.346759,444.827941 257.399352,448.693577 C257.451945,452.559212 254.360863,455.735564 250.495228,455.788157 C246.629592,455.840749 243.453241,452.749667 243.400648,448.884032 C243.348055,445.018396 246.439137,441.842045 250.304772,441.789452 Z M250.33198,443.789267 C247.570812,443.826833 245.362896,446.095656 245.400463,448.856824 C245.438029,451.617992 247.706851,453.825908 250.46802,453.788342 C253.229188,453.750775 255.437104,451.481953 255.399537,448.720785 C255.361971,445.959616 253.093149,443.751701 250.33198,443.789267 Z M273.98908,447.467778 C274.541313,447.460264 274.995078,447.901847 275.002591,448.454081 C275.009568,448.966869 274.629313,449.394753 274.132806,449.459279 L274.016288,449.467593 L268.016843,449.549216 C267.464609,449.556729 267.010845,449.115146 267.003331,448.562913 C266.996355,448.050124 267.376609,447.62224 267.873116,447.557715 L267.989635,447.549401 L273.98908,447.467778 Z M291.987414,447.222907 C292.539648,447.215393 292.993412,447.656977 293.000925,448.20921 C293.007902,448.721999 292.627647,449.149882 292.131141,449.214408 L292.014622,449.222722 L286.015177,449.304345 C285.462943,449.311858 285.009179,448.870275 285.001666,448.318042 C284.994689,447.805253 285.374944,447.377369 285.87145,447.312844 L285.987969,447.30453 L291.987414,447.222907 Z M303,440.073171 C303.512836,440.073171 303.935507,440.459211 303.993272,440.95655 L304,441.073171 L304,447.073171 C304,447.625455 303.552285,448.073171 303,448.073171 C302.487164,448.073171 302.064493,447.687131 302.006728,447.189792 L302,447.073171 L302,441.073171 C302,440.520886 302.447715,440.073171 303,440.073171 Z M303,422.073171 C303.512836,422.073171 303.935507,422.459211 303.993272,422.95655 L304,423.073171 L304,429.073171 C304,429.625455 303.552285,430.073171 303,430.073171 C302.487164,430.073171 302.064493,429.687131 302.006728,429.189792 L302,429.073171 L302,423.073171 C302,422.520886 302.447715,422.073171 303,422.073171 Z M303,404.073171 C303.512836,404.073171 303.935507,404.459211 303.993272,404.95655 L304,405.073171 L304,411.073171 C304,411.625455 303.552285,412.073171 303,412.073171 C302.487164,412.073171 302.064493,411.687131 302.006728,411.189792 L302,411.073171 L302,405.073171 C302,404.520886 302.447715,404.073171 303,404.073171 Z M303,386.073171 C303.512836,386.073171 303.935507,386.459211 303.993272,386.95655 L304,387.073171 L304,393.073171 C304,393.625455 303.552285,394.073171 303,394.073171 C302.487164,394.073171 302.064493,393.687131 302.006728,393.189792 L302,393.073171 L302,387.073171 C302,386.520886 302.447715,386.073171 303,386.073171 Z M303,368.073171 C303.512836,368.073171 303.935507,368.459211 303.993272,368.95655 L304,369.073171 L304,375.073171 C304,375.625455 303.552285,376.073171 303,376.073171 C302.487164,376.073171 302.064493,375.687131 302.006728,375.189792 L302,375.073171 L302,369.073171 C302,368.520886 302.447715,368.073171 303,368.073171 Z M303,350.073171 C303.512836,350.073171 303.935507,350.459211 303.993272,350.95655 L304,351.073171 L304,357.073171 C304,357.625455 303.552285,358.073171 303,358.073171 C302.487164,358.073171 302.064493,357.687131 302.006728,357.189792 L302,357.073171 L302,351.073171 C302,350.520886 302.447715,350.073171 303,350.073171 Z M441,344.073171 C441.552285,344.073171 442,344.520886 442,345.073171 C442,345.586007 441.61396,346.008678 441.116621,346.066443 L441,346.073171 L435,346.073171 C434.447715,346.073171 434,345.625455 434,345.073171 C434,344.560335 434.38604,344.137664 434.883379,344.079898 L435,344.073171 L441,344.073171 Z M351,344.073171 C351.552285,344.073171 352,344.520886 352,345.073171 C352,345.586007 351.61396,346.008678 351.116621,346.066443 L351,346.073171 L345,346.073171 C344.447715,346.073171 344,345.625455 344,345.073171 C344,344.560335 344.38604,344.137664 344.883379,344.079898 L345,344.073171 L351,344.073171 Z M513,344.073171 C513.552285,344.073171 514,344.520886 514,345.073171 C514,345.586007 513.61396,346.008678 513.116621,346.066443 L513,346.073171 L507,346.073171 C506.447715,346.073171 506,345.625455 506,345.073171 C506,344.560335 506.38604,344.137664 506.883379,344.079898 L507,344.073171 L513,344.073171 Z M601.178972,342.252143 C601.691808,342.252143 602.114479,342.638183 602.172244,343.135522 L602.178972,343.252143 L602.178972,345.073171 L601.178972,346.073171 L597,346.073171 C596.447715,346.073171 596,345.625455 596,345.073171 C596,344.560335 596.38604,344.137664 596.883379,344.079898 L597,344.073171 L600.178,344.073 L600.178972,343.252143 C600.178972,342.739307 600.565012,342.316636 601.062351,342.258871 L601.178972,342.252143 Z M585,344.073171 C585.552285,344.073171 586,344.520886 586,345.073171 C586,345.586007 585.61396,346.008678 585.116621,346.066443 L585,346.073171 L579,346.073171 C578.447715,346.073171 578,345.625455 578,345.073171 C578,344.560335 578.38604,344.137664 578.883379,344.079898 L579,344.073171 L585,344.073171 Z M567,344.073171 C567.552285,344.073171 568,344.520886 568,345.073171 C568,345.586007 567.61396,346.008678 567.116621,346.066443 L567,346.073171 L561,346.073171 C560.447715,346.073171 560,345.625455 560,345.073171 C560,344.560335 560.38604,344.137664 560.883379,344.079898 L561,344.073171 L567,344.073171 Z M549,344.073171 C549.552285,344.073171 550,344.520886 550,345.073171 C550,345.586007 549.61396,346.008678 549.116621,346.066443 L549,346.073171 L543,346.073171 C542.447715,346.073171 542,345.625455 542,345.073171 C542,344.560335 542.38604,344.137664 542.883379,344.079898 L543,344.073171 L549,344.073171 Z M531,344.073171 C531.552285,344.073171 532,344.520886 532,345.073171 C532,345.586007 531.61396,346.008678 531.116621,346.066443 L531,346.073171 L525,346.073171 C524.447715,346.073171 524,345.625455 524,345.073171 C524,344.560335 524.38604,344.137664 524.883379,344.079898 L525,344.073171 L531,344.073171 Z M495,344.073171 C495.552285,344.073171 496,344.520886 496,345.073171 C496,345.586007 495.61396,346.008678 495.116621,346.066443 L495,346.073171 L489,346.073171 C488.447715,346.073171 488,345.625455 488,345.073171 C488,344.560335 488.38604,344.137664 488.883379,344.079898 L489,344.073171 L495,344.073171 Z M477,344.073171 C477.552285,344.073171 478,344.520886 478,345.073171 C478,345.586007 477.61396,346.008678 477.116621,346.066443 L477,346.073171 L471,346.073171 C470.447715,346.073171 470,345.625455 470,345.073171 C470,344.560335 470.38604,344.137664 470.883379,344.079898 L471,344.073171 L477,344.073171 Z M459,344.073171 C459.552285,344.073171 460,344.520886 460,345.073171 C460,345.586007 459.61396,346.008678 459.116621,346.066443 L459,346.073171 L453,346.073171 C452.447715,346.073171 452,345.625455 452,345.073171 C452,344.560335 452.38604,344.137664 452.883379,344.079898 L453,344.073171 L459,344.073171 Z M423,344.073171 C423.552285,344.073171 424,344.520886 424,345.073171 C424,345.586007 423.61396,346.008678 423.116621,346.066443 L423,346.073171 L417,346.073171 C416.447715,346.073171 416,345.625455 416,345.073171 C416,344.560335 416.38604,344.137664 416.883379,344.079898 L417,344.073171 L423,344.073171 Z M405,344.073171 C405.552285,344.073171 406,344.520886 406,345.073171 C406,345.586007 405.61396,346.008678 405.116621,346.066443 L405,346.073171 L399,346.073171 C398.447715,346.073171 398,345.625455 398,345.073171 C398,344.560335 398.38604,344.137664 398.883379,344.079898 L399,344.073171 L405,344.073171 Z M387,344.073171 C387.552285,344.073171 388,344.520886 388,345.073171 C388,345.586007 387.61396,346.008678 387.116621,346.066443 L387,346.073171 L381,346.073171 C380.447715,346.073171 380,345.625455 380,345.073171 C380,344.560335 380.38604,344.137664 380.883379,344.079898 L381,344.073171 L387,344.073171 Z M369,344.073171 C369.552285,344.073171 370,344.520886 370,345.073171 C370,345.586007 369.61396,346.008678 369.116621,346.066443 L369,346.073171 L363,346.073171 C362.447715,346.073171 362,345.625455 362,345.073171 C362,344.560335 362.38604,344.137664 362.883379,344.079898 L363,344.073171 L369,344.073171 Z M333,344.073171 C333.552285,344.073171 334,344.520886 334,345.073171 C334,345.586007 333.61396,346.008678 333.116621,346.066443 L333,346.073171 L327,346.073171 C326.447715,346.073171 326,345.625455 326,345.073171 C326,344.560335 326.38604,344.137664 326.883379,344.079898 L327,344.073171 L333,344.073171 Z M315,344.073171 C315.552285,344.073171 316,344.520886 316,345.073171 C316,345.586007 315.61396,346.008678 315.116621,346.066443 L315,346.073171 L309,346.073171 C308.447715,346.073171 308,345.625455 308,345.073171 C308,344.560335 308.38604,344.137664 308.883379,344.079898 L309,344.073171 L315,344.073171 Z M601.178972,324.252143 C601.691808,324.252143 602.114479,324.638183 602.172244,325.135522 L602.178972,325.252143 L602.178972,331.252143 C602.178972,331.804428 601.731257,332.252143 601.178972,332.252143 C600.666136,332.252143 600.243465,331.866103 600.1857,331.368764 L600.178972,331.252143 L600.178972,325.252143 C600.178972,324.699858 600.626687,324.252143 601.178972,324.252143 Z M601.178972,306.252143 C601.691808,306.252143 602.114479,306.638183 602.172244,307.135522 L602.178972,307.252143 L602.178972,313.252143 C602.178972,313.804428 601.731257,314.252143 601.178972,314.252143 C600.666136,314.252143 600.243465,313.866103 600.1857,313.368764 L600.178972,313.252143 L600.178972,307.252143 C600.178972,306.699858 600.626687,306.252143 601.178972,306.252143 Z M601.178972,288.252143 C601.691808,288.252143 602.114479,288.638183 602.172244,289.135522 L602.178972,289.252143 L602.178972,295.252143 C602.178972,295.804428 601.731257,296.252143 601.178972,296.252143 C600.666136,296.252143 600.243465,295.866103 600.1857,295.368764 L600.178972,295.252143 L600.178972,289.252143 C600.178972,288.699858 600.626687,288.252143 601.178972,288.252143 Z M601.178972,270.252143 C601.691808,270.252143 602.114479,270.638183 602.172244,271.135522 L602.178972,271.252143 L602.178972,277.252143 C602.178972,277.804428 601.731257,278.252143 601.178972,278.252143 C600.666136,278.252143 600.243465,277.866103 600.1857,277.368764 L600.178972,277.252143 L600.178972,271.252143 C600.178972,270.699858 600.626687,270.252143 601.178972,270.252143 Z M761,256.073171 C764.865993,256.073171 768,259.207177 768,263.073171 C768,266.939164 764.865993,270.073171 761,270.073171 C757.473606,270.073171 754.556248,267.46558 754.070921,264.073396 L749,264.073171 C748.447715,264.073171 748,263.625455 748,263.073171 C748,262.560335 748.38604,262.137664 748.883379,262.079898 L749,262.073171 L754.07089,262.073163 C754.556123,258.680872 757.473531,256.073171 761,256.073171 Z M761,258.073171 C758.238576,258.073171 756,260.311747 756,263.073171 C756,265.834594 758.238576,268.073171 761,268.073171 C763.761424,268.073171 766,265.834594 766,263.073171 C766,260.311747 763.761424,258.073171 761,258.073171 Z M611,262.073171 C611.552285,262.073171 612,262.520886 612,263.073171 C612,263.586007 611.61396,264.008678 611.116621,264.066443 L611,264.073171 L605,264.073171 C604.447715,264.073171 604,263.625455 604,263.073171 C604,262.560335 604.38604,262.137664 604.883379,262.079898 L605,262.073171 L611,262.073171 Z M629,262.073171 C629.552285,262.073171 630,262.520886 630,263.073171 C630,263.586007 629.61396,264.008678 629.116621,264.066443 L629,264.073171 L623,264.073171 C622.447715,264.073171 622,263.625455 622,263.073171 C622,262.560335 622.38604,262.137664 622.883379,262.079898 L623,262.073171 L629,262.073171 Z M647,262.073171 C647.552285,262.073171 648,262.520886 648,263.073171 C648,263.586007 647.61396,264.008678 647.116621,264.066443 L647,264.073171 L641,264.073171 C640.447715,264.073171 640,263.625455 640,263.073171 C640,262.560335 640.38604,262.137664 640.883379,262.079898 L641,262.073171 L647,262.073171 Z M665,262.073171 C665.552285,262.073171 666,262.520886 666,263.073171 C666,263.586007 665.61396,264.008678 665.116621,264.066443 L665,264.073171 L659,264.073171 C658.447715,264.073171 658,263.625455 658,263.073171 C658,262.560335 658.38604,262.137664 658.883379,262.079898 L659,262.073171 L665,262.073171 Z M683,262.073171 C683.552285,262.073171 684,262.520886 684,263.073171 C684,263.586007 683.61396,264.008678 683.116621,264.066443 L683,264.073171 L677,264.073171 C676.447715,264.073171 676,263.625455 676,263.073171 C676,262.560335 676.38604,262.137664 676.883379,262.079898 L677,262.073171 L683,262.073171 Z M701,262.073171 C701.552285,262.073171 702,262.520886 702,263.073171 C702,263.586007 701.61396,264.008678 701.116621,264.066443 L701,264.073171 L695,264.073171 C694.447715,264.073171 694,263.625455 694,263.073171 C694,262.560335 694.38604,262.137664 694.883379,262.079898 L695,262.073171 L701,262.073171 Z M719,262.073171 C719.552285,262.073171 720,262.520886 720,263.073171 C720,263.586007 719.61396,264.008678 719.116621,264.066443 L719,264.073171 L713,264.073171 C712.447715,264.073171 712,263.625455 712,263.073171 C712,262.560335 712.38604,262.137664 712.883379,262.079898 L713,262.073171 L719,262.073171 Z M737,262.073171 C737.552285,262.073171 738,262.520886 738,263.073171 C738,263.586007 737.61396,264.008678 737.116621,264.066443 L737,264.073171 L731,264.073171 C730.447715,264.073171 730,263.625455 730,263.073171 C730,262.560335 730.38604,262.137664 730.883379,262.079898 L731,262.073171 L737,262.073171 Z" fill="#D107FF" fill-rule="nonzero"></path>
                        <path id="Path-Copy" d="M204,95.0731707 C207.865993,95.0731707 211,98.2071775 211,102.073171 C211,105.939164 207.865993,109.073171 204,109.073171 C200.134007,109.073171 197,105.939164 197,102.073171 C197,98.2071775 200.134007,95.0731707 204,95.0731707 Z M204,97.0731707 C201.238576,97.0731707 199,99.311747 199,102.073171 C199,104.834594 201.238576,107.073171 204,107.073171 C206.761424,107.073171 209,104.834594 209,102.073171 C209,99.311747 206.761424,97.0731707 204,97.0731707 Z M280,101.073171 C280.552285,101.073171 281,101.520886 281,102.073171 C281,102.586007 280.61396,103.008678 280.116621,103.066443 L280,103.073171 L274,103.073171 C273.447715,103.073171 273,102.625455 273,102.073171 C273,101.560335 273.38604,101.137664 273.883379,101.079898 L274,101.073171 L280,101.073171 Z M262,101.073171 C262.552285,101.073171 263,101.520886 263,102.073171 C263,102.586007 262.61396,103.008678 262.116621,103.066443 L262,103.073171 L256,103.073171 C255.447715,103.073171 255,102.625455 255,102.073171 C255,101.560335 255.38604,101.137664 255.883379,101.079898 L256,101.073171 L262,101.073171 Z M244,101.073171 C244.552285,101.073171 245,101.520886 245,102.073171 C245,102.586007 244.61396,103.008678 244.116621,103.066443 L244,103.073171 L238,103.073171 C237.447715,103.073171 237,102.625455 237,102.073171 C237,101.560335 237.38604,101.137664 237.883379,101.079898 L238,101.073171 L244,101.073171 Z M226,101.073171 C226.552285,101.073171 227,101.520886 227,102.073171 C227,102.586007 226.61396,103.008678 226.116621,103.066443 L226,103.073171 L220,103.073171 C219.447715,103.073171 219,102.625455 219,102.073171 C219,101.560335 219.38604,101.137664 219.883379,101.079898 L220,101.073171 L226,101.073171 Z M284.922227,87.9953982 C285.435063,87.9953982 285.857735,88.3814384 285.9155,88.8787771 L285.922227,88.9953982 L285.922227,94.9953982 C285.922227,95.547683 285.474512,95.9953982 284.922227,95.9953982 C284.409392,95.9953982 283.98672,95.609358 283.928955,95.1120193 L283.922227,94.9953982 L283.922227,88.9953982 C283.922227,88.4431135 284.369943,87.9953982 284.922227,87.9953982 Z M284.922227,69.9953982 C285.435063,69.9953982 285.857735,70.3814384 285.9155,70.8787771 L285.922227,70.9953982 L285.922227,76.9953982 C285.922227,77.547683 285.474512,77.9953982 284.922227,77.9953982 C284.409392,77.9953982 283.98672,77.609358 283.928955,77.1120193 L283.922227,76.9953982 L283.922227,70.9953982 C283.922227,70.4431135 284.369943,69.9953982 284.922227,69.9953982 Z M284.922227,51.9953982 C285.435063,51.9953982 285.857735,52.3814384 285.9155,52.8787771 L285.922227,52.9953982 L285.922227,58.9953982 C285.922227,59.547683 285.474512,59.9953982 284.922227,59.9953982 C284.409392,59.9953982 283.98672,59.609358 283.928955,59.1120193 L283.922227,58.9953982 L283.922227,52.9953982 C283.922227,52.4431135 284.369943,51.9953982 284.922227,51.9953982 Z M462,37.0731707 C465.865993,37.0731707 469,40.2071775 469,44.0731707 C469,47.939164 465.865993,51.0731707 462,51.0731707 C458.473606,51.0731707 455.556248,48.4655802 455.070921,45.0733958 L450,45.0731707 C449.447715,45.0731707 449,44.6254555 449,44.0731707 C449,43.5603349 449.38604,43.1376636 449.883379,43.0798985 L450,43.0731707 L455.07089,43.0731625 C455.556123,39.6808724 458.473531,37.0731707 462,37.0731707 Z M462,39.0731707 C459.238576,39.0731707 457,41.311747 457,44.0731707 C457,46.8345945 459.238576,49.0731707 462,49.0731707 C464.761424,49.0731707 467,46.8345945 467,44.0731707 C467,41.311747 464.761424,39.0731707 462,39.0731707 Z M438,43.0731707 C438.552285,43.0731707 439,43.520886 439,44.0731707 C439,44.5860066 438.61396,45.0086779 438.116621,45.066443 L438,45.0731707 L432,45.0731707 C431.447715,45.0731707 431,44.6254555 431,44.0731707 C431,43.5603349 431.38604,43.1376636 431.883379,43.0798985 L432,43.0731707 L438,43.0731707 Z M420,43.0731707 C420.552285,43.0731707 421,43.520886 421,44.0731707 C421,44.5860066 420.61396,45.0086779 420.116621,45.066443 L420,45.0731707 L414,45.0731707 C413.447715,45.0731707 413,44.6254555 413,44.0731707 C413,43.5603349 413.38604,43.1376636 413.883379,43.0798985 L414,43.0731707 L420,43.0731707 Z M402,43.0731707 C402.552285,43.0731707 403,43.520886 403,44.0731707 C403,44.5860066 402.61396,45.0086779 402.116621,45.066443 L402,45.0731707 L396,45.0731707 C395.447715,45.0731707 395,44.6254555 395,44.0731707 C395,43.5603349 395.38604,43.1376636 395.883379,43.0798985 L396,43.0731707 L402,43.0731707 Z M384,43.0731707 C384.552285,43.0731707 385,43.520886 385,44.0731707 C385,44.5860066 384.61396,45.0086779 384.116621,45.066443 L384,45.0731707 L378,45.0731707 C377.447715,45.0731707 377,44.6254555 377,44.0731707 C377,43.5603349 377.38604,43.1376636 377.883379,43.0798985 L378,43.0731707 L384,43.0731707 Z M366,43.0731707 C366.552285,43.0731707 367,43.520886 367,44.0731707 C367,44.5860066 366.61396,45.0086779 366.116621,45.066443 L366,45.0731707 L360,45.0731707 C359.447715,45.0731707 359,44.6254555 359,44.0731707 C359,43.5603349 359.38604,43.1376636 359.883379,43.0798985 L360,43.0731707 L366,43.0731707 Z M348,43.0731707 C348.552285,43.0731707 349,43.520886 349,44.0731707 C349,44.5860066 348.61396,45.0086779 348.116621,45.066443 L348,45.0731707 L342,45.0731707 C341.447715,45.0731707 341,44.6254555 341,44.0731707 C341,43.5603349 341.38604,43.1376636 341.883379,43.0798985 L342,43.0731707 L348,43.0731707 Z M330,43.0731707 C330.552285,43.0731707 331,43.520886 331,44.0731707 C331,44.5860066 330.61396,45.0086779 330.116621,45.066443 L330,45.0731707 L324,45.0731707 C323.447715,45.0731707 323,44.6254555 323,44.0731707 C323,43.5603349 323.38604,43.1376636 323.883379,43.0798985 L324,43.0731707 L330,43.0731707 Z M312,43.0731707 C312.552285,43.0731707 313,43.520886 313,44.0731707 C313,44.5860066 312.61396,45.0086779 312.116621,45.066443 L312,45.0731707 L306,45.0731707 C305.447715,45.0731707 305,44.6254555 305,44.0731707 C305,43.5603349 305.38604,43.1376636 305.883379,43.0798985 L306,43.0731707 L312,43.0731707 Z M294,43.0731707 C294.552285,43.0731707 295,43.520886 295,44.0731707 C295,44.5860066 294.61396,45.0086779 294.116621,45.066443 L294,45.0731707 L288,45.0731707 C287.447715,45.0731707 287,44.6254555 287,44.0731707 C287,43.5603349 287.38604,43.1376636 287.883379,43.0798985 L288,43.0731707 L294,43.0731707 Z" fill="#D107FF" fill-rule="nonzero"></path>
                        <circle id="Oval" fill="#FFFFFF" cx="462" cy="44.0731707" r="3"></circle>
                        <circle id="Oval" fill="#FFFFFF" cx="204" cy="102.073171" r="3"></circle>
                        <polygon id="Rectangle" fill="#B6B6B6" points="654 140.788804 743 140.788804 693 226.788804 604 226.788804"></polygon>
                        <rect id="Rectangle" fill="#6D6D6D" x="223.251613" y="354.073171" width="5.49677419" height="102" rx="2"></rect>
                        <rect id="Rectangle-Copy-28" fill="#5D3636" x="525.748387" y="436.073171" width="3" height="27" rx="1.5"></rect>
                        <ellipse id="Oval" fill-opacity="0.9" fill="#4B9315" cx="519" cy="437.573171" rx="9" ry="8.5"></ellipse>
                        <ellipse id="Oval-Copy-3" fill-opacity="0.9" fill="#4B9315" cx="528" cy="429.573171" rx="9" ry="8.5"></ellipse>
                        <ellipse id="Oval-Copy-4" fill-opacity="0.9" fill="#4B9315" cx="528" cy="443.573171" rx="9" ry="8.5"></ellipse>
                        <ellipse id="Oval-Copy-5" fill-opacity="0.9" fill="#4B9315" cx="535" cy="437.573171" rx="9" ry="8.5"></ellipse>
                        <rect id="Rectangle-Copy-28" fill="#5D3636" x="573.748387" y="453.073171" width="3" height="27" rx="1.5"></rect>
                        <ellipse id="Oval" fill-opacity="0.9" fill="#4B9315" cx="567" cy="454.573171" rx="9" ry="8.5"></ellipse>
                        <ellipse id="Oval-Copy-3" fill-opacity="0.9" fill="#4B9315" cx="576" cy="446.573171" rx="9" ry="8.5"></ellipse>
                        <ellipse id="Oval-Copy-4" fill-opacity="0.9" fill="#4B9315" cx="576" cy="460.573171" rx="9" ry="8.5"></ellipse>
                        <ellipse id="Oval-Copy-5" fill-opacity="0.9" fill="#4B9315" cx="583" cy="454.573171" rx="9" ry="8.5"></ellipse>
                        <g id="Group-9" transform="translate(197.000000, 517.073171)">
                            <rect id="Rectangle-Copy-28" fill="#5D3636" x="16" y="15" width="3" height="27" rx="1.5"></rect>
                            <ellipse id="Oval" fill-opacity="0.9" fill="#4B9315" cx="9.2516129" cy="16.5" rx="9" ry="8.5"></ellipse>
                            <ellipse id="Oval-Copy-3" fill-opacity="0.9" fill="#4B9315" cx="18.2516129" cy="8.5" rx="9" ry="8.5"></ellipse>
                            <ellipse id="Oval-Copy-4" fill-opacity="0.9" fill="#4B9315" cx="18.2516129" cy="22.5" rx="9" ry="8.5"></ellipse>
                            <ellipse id="Oval-Copy-5" fill-opacity="0.9" fill="#4B9315" cx="25.2516129" cy="16.5" rx="9" ry="8.5"></ellipse>
                        </g>
                        <rect id="Rectangle-Copy-28" fill="#5D3636" x="408" y="166.073171" width="3" height="27" rx="1.5"></rect>
                        <ellipse id="Oval" fill-opacity="0.9" fill="#4B9315" cx="401.251613" cy="167.573171" rx="9" ry="8.5"></ellipse>
                        <ellipse id="Oval-Copy-3" fill-opacity="0.9" fill="#4B9315" cx="410.251613" cy="159.573171" rx="9" ry="8.5"></ellipse>
                        <ellipse id="Oval-Copy-4" fill-opacity="0.9" fill="#4B9315" cx="410.251613" cy="173.573171" rx="9" ry="8.5"></ellipse>
                        <ellipse id="Oval-Copy-5" fill-opacity="0.9" fill="#4B9315" cx="417.251613" cy="167.573171" rx="9" ry="8.5"></ellipse>
                        <rect id="Rectangle" fill="#9B26B6" x="203" y="339.788804" width="46" height="46" rx="5"></rect>
                        <polygon id="Rectangle-Copy-27" fill="#B6B6B6" points="73 477.788804 162 477.788804 112 563.788804 23 563.788804"></polygon>
                        <rect id="Rectangle-Copy-28" fill="#5D3636" x="636" y="296.073171" width="3" height="27" rx="1.5"></rect>
                        <ellipse id="Oval" fill-opacity="0.9" fill="#4B9315" cx="629.251613" cy="297.573171" rx="9" ry="8.5"></ellipse>
                        <ellipse id="Oval-Copy-3" fill-opacity="0.9" fill="#4B9315" cx="638.251613" cy="289.573171" rx="9" ry="8.5"></ellipse>
                        <ellipse id="Oval-Copy-4" fill-opacity="0.9" fill="#4B9315" cx="638.251613" cy="303.573171" rx="9" ry="8.5"></ellipse>
                        <ellipse id="Oval-Copy-5" fill-opacity="0.9" fill="#4B9315" cx="645.251613" cy="297.573171" rx="9" ry="8.5"></ellipse>
                        <rect id="Rectangle-Copy-28" fill="#5D3636" x="251" y="196.073171" width="3" height="27" rx="1.5"></rect>
                        <ellipse id="Oval" fill-opacity="0.9" fill="#4B9315" cx="244.251613" cy="197.573171" rx="9" ry="8.5"></ellipse>
                        <ellipse id="Oval-Copy-3" fill-opacity="0.9" fill="#4B9315" cx="253.251613" cy="189.573171" rx="9" ry="8.5"></ellipse>
                        <ellipse id="Oval-Copy-4" fill-opacity="0.9" fill="#4B9315" cx="253.251613" cy="203.573171" rx="9" ry="8.5"></ellipse>
                        <ellipse id="Oval-Copy-5" fill-opacity="0.9" fill="#4B9315" cx="260.251613" cy="197.573171" rx="9" ry="8.5"></ellipse>
                        <circle id="Oval" fill="#FFFFFF" cx="204" cy="102.073171" r="3"></circle>
                        <circle id="Oval" fill="#FFFFFF" cx="204" cy="158.073171" r="3"></circle>
                    </g>
                    <g id="Group-6" transform="translate(108.000000, 118.500000)" opacity="0.510405041">
                        <g id="Group-5"></g>
                    </g>
                </g>
            </g>
        </g>
    </g>
</svg>