<?xml version="1.0" encoding="UTF-8"?>
<svg width="813px" height="449px" viewBox="0 0 813 449" version="1.1" xmlns="http://www.w3.org/2000/svg" xmlns:xlink="http://www.w3.org/1999/xlink">
    <title>Group 4</title>
    <g id="Page-White" stroke="none" stroke-width="1" fill="none" fill-rule="evenodd">
        <g id="Desktop-HD" transform="translate(-429.000000, -244.000000)">
            <g id="Group-4" transform="translate(429.000000, 244.715634)">
                <path d="M513.538926,274.284366 L602.461074,274.284366 C609.364468,274.284366 615.063971,279.680169 615.441608,286.573226 L621.248833,392.573226 C621.641585,399.742177 616.14839,405.872149 608.979439,406.264901 C608.742614,406.277876 608.505479,406.284366 608.268299,406.284366 L507.731701,406.284366 C500.552,406.284366 494.731701,400.464068 494.731701,393.284366 C494.731701,393.047186 494.738192,392.810051 494.751167,392.573226 L500.558392,286.573226 C500.936029,279.680169 506.635532,274.284366 513.538926,274.284366 Z" id="Rectangle" fill="#9B26B6" opacity="0.503688267"></path>
                <rect id="Rectangle-Copy-13" fill-opacity="0.5" fill="#9B26B6" x="0" y="86.2843664" width="117" height="188" rx="15"></rect>
                <rect id="Rectangle-Copy-14" fill-opacity="0.5" fill="#9B26B6" x="0" y="100.284366" width="117" height="152"></rect>
                <path d="M514.572955,278.284366 L598.557685,278.284366 C605.512452,278.284366 611.235366,283.758066 611.544811,290.705946 L614.395244,354.705946 C614.714697,361.878537 609.159131,367.952039 601.986539,368.271492 C601.793852,368.280074 601.600997,368.284366 601.408118,368.284366 L514.591882,368.284366 C507.41218,368.284366 501.591882,362.464068 501.591882,355.284366 C501.591882,355.091488 501.596174,354.898633 501.604756,354.705946 L504.582858,287.839427 C504.820893,282.494905 509.223134,278.284366 514.572955,278.284366 Z" id="Rectangle-Copy" fill="#9B26B6" opacity="0.503688267"></path>
                <circle id="Oval" fill="#F0B0FF" opacity="0.503688267" cx="603.5" cy="387.784366" r="11.5"></circle>
                <circle id="Oval-Copy" fill="#F0B0FF" opacity="0.503688267" cx="512.5" cy="387.784366" r="11.5"></circle>
                <g id="Group-3" opacity="0.5" transform="translate(578.667794, 0.000000)">
                    <g id="Group-2-Copy" transform="translate(16.000000, 18.000000)">
                        <path d="M5.34398049,5.85954045 L212.65602,5.85954045 C214.312874,5.85954045 215.65602,7.2026862 215.65602,8.85954045 L215.65602,83.1404595 C215.65602,84.7973138 214.312874,86.1404595 212.65602,86.1404595 L5.34398049,86.1404595 C3.68712625,86.1404595 2.34398049,84.7973138 2.34398049,83.1404595 L2.34398049,8.85954045 C2.34398049,7.2026862 3.68712625,5.85954045 5.34398049,5.85954045 Z" id="Rectangle" fill="#B15FC4" transform="translate(109.000000, 46.000000) rotate(3.000000) translate(-109.000000, -46.000000) "></path>
                        <line x1="159.606175" y1="9.68423893" x2="159.605935" y2="88.2065445" id="Line" stroke-opacity="0.8" stroke="#4F0460" stroke-width="3" stroke-dasharray="6" transform="translate(159.606055, 48.945392) rotate(3.000000) translate(-159.606055, -48.945392) "></line>
                        <polygon id="Rectangle" fill="#232323" transform="translate(49.380667, 24.685131) rotate(3.000000) translate(-49.380667, -24.685131) " points="13.3403638 20.2903361 85.4209974 20.2901159 85.4209706 29.0799262 13.340337 29.0801464"></polygon>
                        <polygon id="Rectangle-Copy-7" fill-opacity="0.75" fill="#9B26B6" transform="translate(188.769987, 29.936019) rotate(3.000000) translate(-188.769987, -29.936019) " points="167.966234 27.5921331 209.573755 27.592006 209.57374 32.2799049 167.96622 32.2800319"></polygon>
                        <polygon id="Rectangle-Copy-9" fill-opacity="0.75" fill="#9B26B6" transform="translate(187.972568, 45.150808) rotate(3.000000) translate(-187.972568, -45.150808) " points="167.168815 42.8069219 208.776335 42.8067949 208.77632 47.4946937 167.1688 47.4948208"></polygon>
                        <polygon id="Rectangle-Copy-11" fill-opacity="0.75" fill="#9B26B6" transform="translate(187.175148, 60.365597) rotate(3.000000) translate(-187.175148, -60.365597) " points="166.371395 58.0217108 207.978915 58.0215837 207.978901 62.7094825 166.37138 62.7096096"></polygon>
                        <polygon id="Rectangle-Copy-8" fill-opacity="0.75" fill="#9B26B6" transform="translate(188.371277, 37.543413) rotate(3.000000) translate(-188.371277, -37.543413) " points="167.567525 35.1995275 209.175045 35.1994004 209.17503 39.8872993 167.56751 39.8874263"></polygon>
                        <polygon id="Rectangle-Copy-10" fill-opacity="0.75" fill="#9B26B6" transform="translate(187.573858, 52.758202) rotate(3.000000) translate(-187.573858, -52.758202) " points="166.770105 50.4143163 208.377625 50.4141893 208.377611 55.1020881 166.77009 55.1022152"></polygon>
                        <polygon id="Rectangle-Copy-12" fill-opacity="0.75" fill="#9B26B6" transform="translate(186.776438, 67.972991) rotate(3.000000) translate(-186.776438, -67.972991) " points="165.972685 65.6291052 207.580205 65.6289781 207.580191 70.3168769 165.97267 70.317004"></polygon>
                        <polygon id="Rectangle-Copy-5" fill="#232323" transform="translate(77.830076, 47.300506) rotate(3.000000) translate(-77.830076, -47.300506) " points="12.195691 42.9058014 143.464487 42.9054005 143.46446 51.6952108 12.1956642 51.6956117"></polygon>
                        <polygon id="Rectangle-Copy-6" fill-opacity="0.75" fill="#9B26B6" transform="translate(69.748097, 61.546740) rotate(3.000000) translate(-69.748097, -61.546740) " points="11.4389799 57.1520312 128.057241 57.151675 128.057214 65.9414488 11.4389531 65.941805"></polygon>
                    </g>
                    <rect id="Rectangle-Copy-15" fill="#9B26B6" x="0" y="0" width="214" height="80" rx="3"></rect>
                    <line x1="158.25" y1="1.29104478" x2="158.25" y2="78.7089552" id="Line-Copy" stroke="#4F0460" stroke-width="3" stroke-dasharray="6"></line>
                    <rect id="Rectangle-Copy-16" fill-opacity="0.8" fill="#66037D" x="10" y="18" width="72" height="8"></rect>
                    <rect id="Rectangle-Copy-17" fill-opacity="0.8" fill="#66037D" x="165" y="18" width="42" height="4"></rect>
                    <rect id="Rectangle-Copy-18" fill-opacity="0.8" fill="#66037D" x="165" y="33" width="42" height="4"></rect>
                    <rect id="Rectangle-Copy-19" fill-opacity="0.8" fill="#66037D" x="165" y="48" width="42" height="4"></rect>
                    <rect id="Rectangle-Copy-20" fill-opacity="0.8" fill="#66037D" x="165" y="26" width="42" height="4"></rect>
                    <rect id="Rectangle-Copy-21" fill-opacity="0.8" fill="#66037D" x="165" y="41" width="42" height="4"></rect>
                    <rect id="Rectangle-Copy-22" fill-opacity="0.8" fill="#66037D" x="165" y="56" width="42" height="4"></rect>
                    <rect id="Rectangle-Copy-23" fill-opacity="0.8" fill="#66037D" x="10" y="39" width="132" height="8"></rect>
                    <rect id="Rectangle-Copy-24" fill-opacity="0.8" fill="#66037D" x="10" y="54" width="116" height="8"></rect>
                </g>
                <ellipse id="Oval-Copy-2" fill-opacity="0.5" fill="#BE58D6" cx="58.5" cy="263.284366" rx="8.5" ry="9"></ellipse>
                <g id="Group" opacity="0.503688267" transform="translate(506.000000, 406.284366)" fill="#B3B3B3">
                    <path d="M8.6683872,0.533008952 L8.64639181,38.1865188 C8.64574711,39.2901787 7.75121269,40.1847097 6.64755277,40.1853502 L4.13064429,40.1868107 C3.02607498,40.1874517 2.130125,39.292541 2.12948401,38.1879717 C2.12948356,38.1871954 2.12948357,38.1864191 2.12948402,38.1856428 L2.15117784,1.04837589 L2.15117784,1.04837589 L8.6683872,0.533008952 Z" id="Rectangle-Copy-3" transform="translate(5.398351, 20.360491) rotate(-355.000000) translate(-5.398351, -20.360491) "></path>
                    <path d="M102.885222,1.08551118 L102.906473,37.4647536 C102.907118,38.5693229 102.012211,39.4652763 100.907642,39.4659215 C100.906865,39.465922 100.906089,39.465922 100.905313,39.4659215 L98.3884044,39.4644609 C97.2847444,39.4638205 96.39021,38.5692895 96.3895653,37.4656296 L96.3680519,0.637264108 L96.3680519,0.637264108 L102.885222,1.08551118 Z" id="Rectangle-Copy-4" transform="translate(99.637847, 20.052174) rotate(-365.000000) translate(-99.637847, -20.052174) "></path>
                    <path d="M52,-35 L54,-35 C55.1045695,-35 56,-34.1045695 56,-33 L56,54 C56,55.1045695 55.1045695,56 54,56 L52,56 C50.8954305,56 50,55.1045695 50,54 L50,-33 C50,-34.1045695 50.8954305,-35 52,-35 Z" id="Rectangle" transform="translate(53.000000, 10.500000) rotate(-270.000000) translate(-53.000000, -10.500000) "></path>
                    <path d="M52,-18 L54,-18 C55.1045695,-18 56,-17.1045695 56,-16 L56,71 C56,72.1045695 55.1045695,73 54,73 L52,73 C50.8954305,73 50,72.1045695 50,71 L50,-16 C50,-17.1045695 50.8954305,-18 52,-18 Z" id="Rectangle-Copy-2" transform="translate(53.000000, 27.500000) rotate(-270.000000) translate(-53.000000, -27.500000) "></path>
                </g>
                <path id="Path" d="M461.697698,332.784366 C465.563691,332.784366 468.697698,335.918373 468.697698,339.784366 C468.697698,343.65036 465.563691,346.784366 461.697698,346.784366 C458.171304,346.784366 455.253946,344.176776 454.768619,340.784591 L449.697698,340.784366 C449.145413,340.784366 448.697698,340.336651 448.697698,339.784366 C448.697698,339.271531 449.083738,338.848859 449.581077,338.791094 L449.697698,338.784366 L454.768588,338.784358 C455.253821,335.392068 458.171229,332.784366 461.697698,332.784366 Z M461.697698,334.784366 C458.936274,334.784366 456.697698,337.022943 456.697698,339.784366 C456.697698,342.54579 458.936274,344.784366 461.697698,344.784366 C464.459122,344.784366 466.697698,342.54579 466.697698,339.784366 C466.697698,337.022943 464.459122,334.784366 461.697698,334.784366 Z M437.697698,338.784366 C438.249983,338.784366 438.697698,339.232082 438.697698,339.784366 C438.697698,340.297202 438.311658,340.719874 437.814319,340.777639 L437.697698,340.784366 L431.697698,340.784366 C431.145413,340.784366 430.697698,340.336651 430.697698,339.784366 C430.697698,339.271531 431.083738,338.848859 431.581077,338.791094 L431.697698,338.784366 L437.697698,338.784366 Z M419.697698,338.784366 C420.249983,338.784366 420.697698,339.232082 420.697698,339.784366 C420.697698,340.297202 420.311658,340.719874 419.814319,340.777639 L419.697698,340.784366 L413.697698,340.784366 C413.145413,340.784366 412.697698,340.336651 412.697698,339.784366 C412.697698,339.271531 413.083738,338.848859 413.581077,338.791094 L413.697698,338.784366 L419.697698,338.784366 Z M401.697698,338.784366 C402.249983,338.784366 402.697698,339.232082 402.697698,339.784366 C402.697698,340.297202 402.311658,340.719874 401.814319,340.777639 L401.697698,340.784366 L395.697698,340.784366 C395.145413,340.784366 394.697698,340.336651 394.697698,339.784366 C394.697698,339.271531 395.083738,338.848859 395.581077,338.791094 L395.697698,338.784366 L401.697698,338.784366 Z M383.697698,338.784366 C384.249983,338.784366 384.697698,339.232082 384.697698,339.784366 C384.697698,340.297202 384.311658,340.719874 383.814319,340.777639 L383.697698,340.784366 L377.697698,340.784366 C377.145413,340.784366 376.697698,340.336651 376.697698,339.784366 C376.697698,339.271531 377.083738,338.848859 377.581077,338.791094 L377.697698,338.784366 L383.697698,338.784366 Z M364.100885,334.381179 C364.613721,334.381179 365.036392,334.76722 365.094157,335.264558 L365.100885,335.381179 L365.1,338.784 L365.697698,338.784366 C366.210534,338.784366 366.633205,339.170407 366.69097,339.667745 L366.697698,339.784366 C366.697698,340.297202 366.311658,340.719874 365.814319,340.777639 L365.697698,340.784366 L364.100885,340.784366 L363.100885,339.784366 L363.100885,335.381179 C363.100885,334.828895 363.5486,334.381179 364.100885,334.381179 Z M364.100885,316.381179 C364.613721,316.381179 365.036392,316.76722 365.094157,317.264558 L365.100885,317.381179 L365.100885,323.381179 C365.100885,323.933464 364.65317,324.381179 364.100885,324.381179 C363.588049,324.381179 363.165378,323.995139 363.107613,323.4978 L363.100885,323.381179 L363.100885,317.381179 C363.100885,316.828895 363.5486,316.381179 364.100885,316.381179 Z M364.100885,298.381179 C364.613721,298.381179 365.036392,298.76722 365.094157,299.264558 L365.100885,299.381179 L365.100885,305.381179 C365.100885,305.933464 364.65317,306.381179 364.100885,306.381179 C363.588049,306.381179 363.165378,305.995139 363.107613,305.4978 L363.100885,305.381179 L363.100885,299.381179 C363.100885,298.828895 363.5486,298.381179 364.100885,298.381179 Z M364.100885,280.381179 C364.613721,280.381179 365.036392,280.76722 365.094157,281.264558 L365.100885,281.381179 L365.100885,287.381179 C365.100885,287.933464 364.65317,288.381179 364.100885,288.381179 C363.588049,288.381179 363.165378,287.995139 363.107613,287.4978 L363.100885,287.381179 L363.100885,281.381179 C363.100885,280.828895 363.5486,280.381179 364.100885,280.381179 Z M364.100885,262.381179 C364.613721,262.381179 365.036392,262.76722 365.094157,263.264558 L365.100885,263.381179 L365.100885,269.381179 C365.100885,269.933464 364.65317,270.381179 364.100885,270.381179 C363.588049,270.381179 363.165378,269.995139 363.107613,269.4978 L363.100885,269.381179 L363.100885,263.381179 C363.100885,262.828895 363.5486,262.381179 364.100885,262.381179 Z M364.100885,244.381179 C364.613721,244.381179 365.036392,244.76722 365.094157,245.264558 L365.100885,245.381179 L365.100885,251.381179 C365.100885,251.933464 364.65317,252.381179 364.100885,252.381179 C363.588049,252.381179 363.165378,251.995139 363.107613,251.4978 L363.100885,251.381179 L363.100885,245.381179 C363.100885,244.828895 363.5486,244.381179 364.100885,244.381179 Z M364.100885,226.381179 C364.613721,226.381179 365.036392,226.76722 365.094157,227.264558 L365.100885,227.381179 L365.100885,233.381179 C365.100885,233.933464 364.65317,234.381179 364.100885,234.381179 C363.588049,234.381179 363.165378,233.995139 363.107613,233.4978 L363.100885,233.381179 L363.100885,227.381179 C363.100885,226.828895 363.5486,226.381179 364.100885,226.381179 Z M170.952378,214.031863 C174.4785,214.031863 177.39568,216.639051 177.881344,220.030853 L178.450202,220.031863 C179.002486,220.031863 179.450202,220.479578 179.450202,221.031863 C179.450202,221.544699 179.064161,221.96737 178.566823,222.025135 L178.450202,222.031863 L177.881488,222.031871 C177.396255,225.424161 174.478847,228.031863 170.952378,228.031863 C167.086385,228.031863 163.952378,224.897856 163.952378,221.031863 C163.952378,217.16587 167.086385,214.031863 170.952378,214.031863 Z M170.952378,216.031863 C168.190954,216.031863 165.952378,218.270439 165.952378,221.031863 C165.952378,223.793287 168.190954,226.031863 170.952378,226.031863 C173.713802,226.031863 175.952378,223.793287 175.952378,221.031863 C175.952378,218.270439 173.713802,216.031863 170.952378,216.031863 Z M358.450202,220.031863 C359.002486,220.031863 359.450202,220.479578 359.450202,221.031863 C359.450202,221.544699 359.064161,221.96737 358.566823,222.025135 L358.450202,222.031863 L352.450202,222.031863 C351.897917,222.031863 351.450202,221.584148 351.450202,221.031863 C351.450202,220.519027 351.836242,220.096356 352.33358,220.038591 L352.450202,220.031863 L358.450202,220.031863 Z M340.450202,220.031863 C341.002486,220.031863 341.450202,220.479578 341.450202,221.031863 C341.450202,221.544699 341.064161,221.96737 340.566823,222.025135 L340.450202,222.031863 L334.450202,222.031863 C333.897917,222.031863 333.450202,221.584148 333.450202,221.031863 C333.450202,220.519027 333.836242,220.096356 334.33358,220.038591 L334.450202,220.031863 L340.450202,220.031863 Z M322.450202,220.031863 C323.002486,220.031863 323.450202,220.479578 323.450202,221.031863 C323.450202,221.544699 323.064161,221.96737 322.566823,222.025135 L322.450202,222.031863 L316.450202,222.031863 C315.897917,222.031863 315.450202,221.584148 315.450202,221.031863 C315.450202,220.519027 315.836242,220.096356 316.33358,220.038591 L316.450202,220.031863 L322.450202,220.031863 Z M304.450202,220.031863 C305.002486,220.031863 305.450202,220.479578 305.450202,221.031863 C305.450202,221.544699 305.064161,221.96737 304.566823,222.025135 L304.450202,222.031863 L298.450202,222.031863 C297.897917,222.031863 297.450202,221.584148 297.450202,221.031863 C297.450202,220.519027 297.836242,220.096356 298.33358,220.038591 L298.450202,220.031863 L304.450202,220.031863 Z M286.450202,220.031863 C287.002486,220.031863 287.450202,220.479578 287.450202,221.031863 C287.450202,221.544699 287.064161,221.96737 286.566823,222.025135 L286.450202,222.031863 L280.450202,222.031863 C279.897917,222.031863 279.450202,221.584148 279.450202,221.031863 C279.450202,220.519027 279.836242,220.096356 280.33358,220.038591 L280.450202,220.031863 L286.450202,220.031863 Z M268.450202,220.031863 C269.002486,220.031863 269.450202,220.479578 269.450202,221.031863 C269.450202,221.544699 269.064161,221.96737 268.566823,222.025135 L268.450202,222.031863 L262.450202,222.031863 C261.897917,222.031863 261.450202,221.584148 261.450202,221.031863 C261.450202,220.519027 261.836242,220.096356 262.33358,220.038591 L262.450202,220.031863 L268.450202,220.031863 Z M250.450202,220.031863 C251.002486,220.031863 251.450202,220.479578 251.450202,221.031863 C251.450202,221.544699 251.064161,221.96737 250.566823,222.025135 L250.450202,222.031863 L244.450202,222.031863 C243.897917,222.031863 243.450202,221.584148 243.450202,221.031863 C243.450202,220.519027 243.836242,220.096356 244.33358,220.038591 L244.450202,220.031863 L250.450202,220.031863 Z M232.450202,220.031863 C233.002486,220.031863 233.450202,220.479578 233.450202,221.031863 C233.450202,221.544699 233.064161,221.96737 232.566823,222.025135 L232.450202,222.031863 L226.450202,222.031863 C225.897917,222.031863 225.450202,221.584148 225.450202,221.031863 C225.450202,220.519027 225.836242,220.096356 226.33358,220.038591 L226.450202,220.031863 L232.450202,220.031863 Z M214.450202,220.031863 C215.002486,220.031863 215.450202,220.479578 215.450202,221.031863 C215.450202,221.544699 215.064161,221.96737 214.566823,222.025135 L214.450202,222.031863 L208.450202,222.031863 C207.897917,222.031863 207.450202,221.584148 207.450202,221.031863 C207.450202,220.519027 207.836242,220.096356 208.33358,220.038591 L208.450202,220.031863 L214.450202,220.031863 Z M196.450202,220.031863 C197.002486,220.031863 197.450202,220.479578 197.450202,221.031863 C197.450202,221.544699 197.064161,221.96737 196.566823,222.025135 L196.450202,222.031863 L190.450202,222.031863 C189.897917,222.031863 189.450202,221.584148 189.450202,221.031863 C189.450202,220.519027 189.836242,220.096356 190.33358,220.038591 L190.450202,220.031863 L196.450202,220.031863 Z" fill="#9B26B6" fill-rule="nonzero"></path>
                <path id="Path-Copy" d="M170.952378,136.031863 C174.818371,136.031863 177.952378,139.16587 177.952378,143.031863 C177.952378,146.897856 174.818371,150.031863 170.952378,150.031863 C167.086385,150.031863 163.952378,146.897856 163.952378,143.031863 C163.952378,139.16587 167.086385,136.031863 170.952378,136.031863 Z M170.952378,138.031863 C168.190954,138.031863 165.952378,140.270439 165.952378,143.031863 C165.952378,145.793287 168.190954,148.031863 170.952378,148.031863 C173.713802,148.031863 175.952378,145.793287 175.952378,143.031863 C175.952378,140.270439 173.713802,138.031863 170.952378,138.031863 Z M282.945194,142.031863 C283.497479,142.031863 283.945194,142.479578 283.945194,143.031863 C283.945194,143.544699 283.559154,143.96737 283.061815,144.025135 L282.945194,144.031863 L276.945194,144.031863 C276.39291,144.031863 275.945194,143.584148 275.945194,143.031863 C275.945194,142.519027 276.331235,142.096356 276.828573,142.038591 L276.945194,142.031863 L282.945194,142.031863 Z M264.945194,142.031863 C265.497479,142.031863 265.945194,142.479578 265.945194,143.031863 C265.945194,143.544699 265.559154,143.96737 265.061815,144.025135 L264.945194,144.031863 L258.945194,144.031863 C258.39291,144.031863 257.945194,143.584148 257.945194,143.031863 C257.945194,142.519027 258.331235,142.096356 258.828573,142.038591 L258.945194,142.031863 L264.945194,142.031863 Z M246.945194,142.031863 C247.497479,142.031863 247.945194,142.479578 247.945194,143.031863 C247.945194,143.544699 247.559154,143.96737 247.061815,144.025135 L246.945194,144.031863 L240.945194,144.031863 C240.39291,144.031863 239.945194,143.584148 239.945194,143.031863 C239.945194,142.519027 240.331235,142.096356 240.828573,142.038591 L240.945194,142.031863 L246.945194,142.031863 Z M228.945194,142.031863 C229.497479,142.031863 229.945194,142.479578 229.945194,143.031863 C229.945194,143.544699 229.559154,143.96737 229.061815,144.025135 L228.945194,144.031863 L222.945194,144.031863 C222.39291,144.031863 221.945194,143.584148 221.945194,143.031863 C221.945194,142.519027 222.331235,142.096356 222.828573,142.038591 L222.945194,142.031863 L228.945194,142.031863 Z M210.945194,142.031863 C211.497479,142.031863 211.945194,142.479578 211.945194,143.031863 C211.945194,143.544699 211.559154,143.96737 211.061815,144.025135 L210.945194,144.031863 L204.945194,144.031863 C204.39291,144.031863 203.945194,143.584148 203.945194,143.031863 C203.945194,142.519027 204.331235,142.096356 204.828573,142.038591 L204.945194,142.031863 L210.945194,142.031863 Z M192.945194,142.031863 C193.497479,142.031863 193.945194,142.479578 193.945194,143.031863 C193.945194,143.544699 193.559154,143.96737 193.061815,144.025135 L192.945194,144.031863 L186.945194,144.031863 C186.39291,144.031863 185.945194,143.584148 185.945194,143.031863 C185.945194,142.519027 186.331235,142.096356 186.828573,142.038591 L186.945194,142.031863 L192.945194,142.031863 Z M284.100885,125.187553 C284.613721,125.187553 285.036392,125.573594 285.094157,126.070932 L285.100885,126.187553 L285.100885,132.187553 C285.100885,132.739838 284.65317,133.187553 284.100885,133.187553 C283.588049,133.187553 283.165378,132.801513 283.107613,132.304175 L283.100885,132.187553 L283.100885,126.187553 C283.100885,125.635269 283.5486,125.187553 284.100885,125.187553 Z M284.100885,107.187553 C284.613721,107.187553 285.036392,107.573594 285.094157,108.070932 L285.100885,108.187553 L285.100885,114.187553 C285.100885,114.739838 284.65317,115.187553 284.100885,115.187553 C283.588049,115.187553 283.165378,114.801513 283.107613,114.304175 L283.100885,114.187553 L283.100885,108.187553 C283.100885,107.635269 283.5486,107.187553 284.100885,107.187553 Z M284.100885,89.1875535 C284.613721,89.1875535 285.036392,89.5735937 285.094157,90.0709324 L285.100885,90.1875535 L285.100885,96.1875535 C285.100885,96.7398382 284.65317,97.1875535 284.100885,97.1875535 C283.588049,97.1875535 283.165378,96.8015133 283.107613,96.3041746 L283.100885,96.1875535 L283.100885,90.1875535 C283.100885,89.6352687 283.5486,89.1875535 284.100885,89.1875535 Z M284.100885,71.1875535 C284.613721,71.1875535 285.036392,71.5735937 285.094157,72.0709324 L285.100885,72.1875535 L285.100885,78.1875535 C285.100885,78.7398382 284.65317,79.1875535 284.100885,79.1875535 C283.588049,79.1875535 283.165378,78.8015133 283.107613,78.3041746 L283.100885,78.1875535 L283.100885,72.1875535 C283.100885,71.6352687 283.5486,71.1875535 284.100885,71.1875535 Z M531.697698,54.7843664 C535.563691,54.7843664 538.697698,57.9183732 538.697698,61.7843664 C538.697698,65.6503597 535.563691,68.7843664 531.697698,68.7843664 C528.171304,68.7843664 525.253946,66.1767759 524.768619,62.7845915 L519.697698,62.7843664 C519.145413,62.7843664 518.697698,62.3366512 518.697698,61.7843664 C518.697698,61.2715306 519.083738,60.8488593 519.581077,60.7910941 L519.697698,60.7843664 L524.768588,60.7843582 C525.253821,57.3920681 528.171229,54.7843664 531.697698,54.7843664 Z M531.697698,56.7843664 C528.936274,56.7843664 526.697698,59.0229427 526.697698,61.7843664 C526.697698,64.5457902 528.936274,66.7843664 531.697698,66.7843664 C534.459122,66.7843664 536.697698,64.5457902 536.697698,61.7843664 C536.697698,59.0229427 534.459122,56.7843664 531.697698,56.7843664 Z M507.697698,60.7843664 C508.249983,60.7843664 508.697698,61.2320817 508.697698,61.7843664 C508.697698,62.2972023 508.311658,62.7198736 507.814319,62.7776387 L507.697698,62.7843664 L501.697698,62.7843664 C501.145413,62.7843664 500.697698,62.3366512 500.697698,61.7843664 C500.697698,61.2715306 501.083738,60.8488593 501.581077,60.7910941 L501.697698,60.7843664 L507.697698,60.7843664 Z M489.697698,60.7843664 C490.249983,60.7843664 490.697698,61.2320817 490.697698,61.7843664 C490.697698,62.2972023 490.311658,62.7198736 489.814319,62.7776387 L489.697698,62.7843664 L483.697698,62.7843664 C483.145413,62.7843664 482.697698,62.3366512 482.697698,61.7843664 C482.697698,61.2715306 483.083738,60.8488593 483.581077,60.7910941 L483.697698,60.7843664 L489.697698,60.7843664 Z M471.697698,60.7843664 C472.249983,60.7843664 472.697698,61.2320817 472.697698,61.7843664 C472.697698,62.2972023 472.311658,62.7198736 471.814319,62.7776387 L471.697698,62.7843664 L465.697698,62.7843664 C465.145413,62.7843664 464.697698,62.3366512 464.697698,61.7843664 C464.697698,61.2715306 465.083738,60.8488593 465.581077,60.7910941 L465.697698,60.7843664 L471.697698,60.7843664 Z M453.697698,60.7843664 C454.249983,60.7843664 454.697698,61.2320817 454.697698,61.7843664 C454.697698,62.2972023 454.311658,62.7198736 453.814319,62.7776387 L453.697698,62.7843664 L447.697698,62.7843664 C447.145413,62.7843664 446.697698,62.3366512 446.697698,61.7843664 C446.697698,61.2715306 447.083738,60.8488593 447.581077,60.7910941 L447.697698,60.7843664 L453.697698,60.7843664 Z M435.697698,60.7843664 C436.249983,60.7843664 436.697698,61.2320817 436.697698,61.7843664 C436.697698,62.2972023 436.311658,62.7198736 435.814319,62.7776387 L435.697698,62.7843664 L429.697698,62.7843664 C429.145413,62.7843664 428.697698,62.3366512 428.697698,61.7843664 C428.697698,61.2715306 429.083738,60.8488593 429.581077,60.7910941 L429.697698,60.7843664 L435.697698,60.7843664 Z M417.697698,60.7843664 C418.249983,60.7843664 418.697698,61.2320817 418.697698,61.7843664 C418.697698,62.2972023 418.311658,62.7198736 417.814319,62.7776387 L417.697698,62.7843664 L411.697698,62.7843664 C411.145413,62.7843664 410.697698,62.3366512 410.697698,61.7843664 C410.697698,61.2715306 411.083738,60.8488593 411.581077,60.7910941 L411.697698,60.7843664 L417.697698,60.7843664 Z M399.697698,60.7843664 C400.249983,60.7843664 400.697698,61.2320817 400.697698,61.7843664 C400.697698,62.2972023 400.311658,62.7198736 399.814319,62.7776387 L399.697698,62.7843664 L393.697698,62.7843664 C393.145413,62.7843664 392.697698,62.3366512 392.697698,61.7843664 C392.697698,61.2715306 393.083738,60.8488593 393.581077,60.7910941 L393.697698,60.7843664 L399.697698,60.7843664 Z M381.697698,60.7843664 C382.249983,60.7843664 382.697698,61.2320817 382.697698,61.7843664 C382.697698,62.2972023 382.311658,62.7198736 381.814319,62.7776387 L381.697698,62.7843664 L375.697698,62.7843664 C375.145413,62.7843664 374.697698,62.3366512 374.697698,61.7843664 C374.697698,61.2715306 375.083738,60.8488593 375.581077,60.7910941 L375.697698,60.7843664 L381.697698,60.7843664 Z M363.697698,60.7843664 C364.249983,60.7843664 364.697698,61.2320817 364.697698,61.7843664 C364.697698,62.2972023 364.311658,62.7198736 363.814319,62.7776387 L363.697698,62.7843664 L357.697698,62.7843664 C357.145413,62.7843664 356.697698,62.3366512 356.697698,61.7843664 C356.697698,61.2715306 357.083738,60.8488593 357.581077,60.7910941 L357.697698,60.7843664 L363.697698,60.7843664 Z M345.697698,60.7843664 C346.249983,60.7843664 346.697698,61.2320817 346.697698,61.7843664 C346.697698,62.2972023 346.311658,62.7198736 345.814319,62.7776387 L345.697698,62.7843664 L339.697698,62.7843664 C339.145413,62.7843664 338.697698,62.3366512 338.697698,61.7843664 C338.697698,61.2715306 339.083738,60.8488593 339.581077,60.7910941 L339.697698,60.7843664 L345.697698,60.7843664 Z M327.697698,60.7843664 C328.249983,60.7843664 328.697698,61.2320817 328.697698,61.7843664 C328.697698,62.2972023 328.311658,62.7198736 327.814319,62.7776387 L327.697698,62.7843664 L321.697698,62.7843664 C321.145413,62.7843664 320.697698,62.3366512 320.697698,61.7843664 C320.697698,61.2715306 321.083738,60.8488593 321.581077,60.7910941 L321.697698,60.7843664 L327.697698,60.7843664 Z M309.697698,60.7843664 C310.249983,60.7843664 310.697698,61.2320817 310.697698,61.7843664 C310.697698,62.2972023 310.311658,62.7198736 309.814319,62.7776387 L309.697698,62.7843664 L303.697698,62.7843664 C303.145413,62.7843664 302.697698,62.3366512 302.697698,61.7843664 C302.697698,61.2715306 303.083738,60.8488593 303.581077,60.7910941 L303.697698,60.7843664 L309.697698,60.7843664 Z M291.697698,60.7843664 C292.249983,60.7843664 292.697698,61.2320817 292.697698,61.7843664 C292.697698,62.2972023 292.311658,62.7198736 291.814319,62.7776387 L291.697698,62.7843664 L285.697698,62.7843664 C285.145413,62.7843664 284.697698,62.3366512 284.697698,61.7843664 C284.697698,61.2715306 285.083738,60.8488593 285.581077,60.7910941 L285.697698,60.7843664 L291.697698,60.7843664 Z" fill="#9B26B6" fill-rule="nonzero"></path>
            </g>
        </g>
    </g>
</svg>